<svg width="232" height="154" viewBox="0 0 232 154" fill="none" xmlns="http://www.w3.org/2000/svg">
<path d="M116.123 147.07C132.116 147.07 145.082 144.459 145.082 141.238C145.082 138.017 132.116 135.405 116.123 135.405C100.13 135.405 87.1643 138.017 87.1643 141.238C87.1643 144.459 100.13 147.07 116.123 147.07Z" fill="#19767B"/>
<path d="M193.857 92.0416H62.0987C60.6061 89.494 59.8332 86.4529 59.6824 83.4622C59.6117 82.0913 59.6739 80.7168 59.8684 79.3577C60.8687 72.4636 65.8188 66.5808 73.0081 67.7177C72.5684 61.7147 71.4641 56.5419 75.3022 51.1473C76.6752 49.2203 78.4166 47.582 80.4267 46.3263C85.3099 43.2621 91.5321 42.5125 97.1925 44.1487C98.3208 44.4752 99.4522 44.8933 100.59 45.3241C103.512 46.4318 106.479 47.6272 109.569 47.5837C116.593 47.4848 120.669 40.323 127.065 38.5335C130.326 37.6214 132.684 38.4869 135.193 40.4851C135.193 40.4851 135.193 40.4851 135.195 40.4874C138.907 43.4446 142.098 39.9018 144.877 37.5614C147.965 34.958 151.092 33.4565 154.937 35.6433C160.386 38.7414 163.164 44.5449 166.462 49.578C168.035 51.9781 169.852 54.1776 171.617 56.4064C173.853 59.2284 176.008 62.0967 177.48 65.4723C178.569 67.9702 179.464 70.5478 180.157 73.1824C181.182 77.0859 181.753 81.1195 181.754 85.0958C187.161 85.0958 194.268 85.4523 193.857 92.0416Z" fill="#A0D5FD"/>
<path d="M121.877 66.5742C121.877 66.5742 115.543 70.9844 110.44 65.9036C101.908 67.9144 94.0126 61.6104 95.1126 54.0379C87.2123 54.0379 82.8089 50.0308 80.4263 46.3263C85.3091 43.2621 91.5317 42.5121 97.1921 44.1488C98.3204 44.4749 99.4518 44.893 100.589 45.3238C100.847 47.6338 101.819 50.5132 104.965 51.2794C103.691 54.5134 106.237 58.4404 112.534 59.7085C112.533 65.0339 121.877 66.5742 121.877 66.5742Z" fill="#D2EBFD"/>
<path d="M108.339 67.186C108.229 67.1926 108.091 67.1918 107.935 67.1964C107.778 67.201 107.599 67.2003 107.404 67.2037C107.012 67.2037 106.549 67.1991 106.041 67.1775C105.532 67.156 104.977 67.1198 104.395 67.0694C103.814 67.0189 103.261 66.9581 102.755 66.8938C102.25 66.8295 101.793 66.7564 101.407 66.689C100.636 66.5538 100.152 66.431 100.152 66.431C100.152 66.431 100.249 66.508 100.439 66.6328C100.707 66.8047 100.986 66.959 101.275 67.0948C102.233 67.5476 103.264 67.8273 104.321 67.9206C104.902 67.9706 105.487 67.963 106.067 67.8979C106.539 67.844 107.007 67.7531 107.464 67.6261C107.658 67.5683 107.833 67.5179 107.984 67.4613C108.135 67.4047 108.264 67.3612 108.368 67.3154C108.576 67.2276 108.688 67.1752 108.688 67.1752C108.688 67.1752 108.562 67.1775 108.339 67.186Z" fill="#D2EBFD"/>
<path d="M121.595 92.7572C110.801 92.3815 101.58 92.1613 93.827 92.0415C80.4305 91.8348 71.4197 91.9287 66.26 92.0415H62.0987C60.6061 89.494 59.8332 86.4529 59.6824 83.4622C64.588 82.3457 75.6254 80.8627 81.6915 88.1426C91.1385 83.6959 94.0439 82.3761 97.0673 87.4928C104.666 83.1242 118.486 88.4999 121.193 92.0415C121.385 92.2906 121.52 92.5305 121.595 92.7572Z" fill="#98B03F"/>
<path d="M180.157 73.1824C176.596 74.5299 173.357 77.1198 171.405 81.7848C164.816 81.7848 166.706 87.9868 168.35 89.6238C162.907 85.48 158.503 86.8133 158.503 89.0933C156.316 88.2197 152.542 90.1978 149.645 92.0412C147.495 93.4099 145.828 94.7039 145.652 94.7039C145.238 94.7039 122.056 93.5839 122.056 93.5839C122.056 93.5839 123.12 92.8724 125.072 92.0412C128.32 90.6595 134.028 88.945 141.385 89.6238C141.385 89.6238 139.22 80.363 152.401 82.0659C153.928 72.2615 162.142 64.7228 170.737 67.3512C169.447 63.3021 170.116 59.585 171.618 56.406C173.854 59.2284 176.008 62.0963 177.48 65.4724C178.569 67.9702 179.464 70.5478 180.157 73.1824Z" fill="#7FC7FD"/>
<path d="M124.164 99.3604C122.935 96.9821 121.838 94.5387 120.877 92.0411H120.995C121.763 93.9688 122.822 96.4852 124.164 99.3604Z" fill="#19767B"/>
<path d="M112.533 92.0412C114.084 99.3054 117.768 114.978 122.992 127.209L118.042 127.373L78.0146 128.706C77.9562 128.708 77.8986 128.71 77.8399 128.711C68.2505 129.031 53.2432 125.423 49.1175 115.681C46.9688 110.607 47.0411 103.425 50.3772 98.853C53.3097 94.834 61.2812 92.745 65.4959 95.9105C65.4936 95.9082 65.4901 95.9062 65.487 95.9035C64.0977 94.859 62.9737 93.5339 62.1002 92.0397L112.533 92.0412Z" fill="#19767B"/>
<path d="M77.488 92.0411H76.763L53.911 121.804C54.0595 121.924 54.2103 122.042 54.3634 122.159L67.8445 104.6C71.0572 100.412 74.2717 96.2261 77.488 92.0411Z" fill="#13585C"/>
<path d="M48.3824 113.562L56.719 106.508L69.5749 95.6293C70.9042 94.4971 72.2475 93.3802 73.5742 92.2456C73.6054 92.2217 73.6304 92.1906 73.6469 92.155C73.6635 92.1194 73.6712 92.0803 73.6693 92.0411H72.9226L69.9194 94.5821C62.6877 100.703 55.455 106.823 48.2212 112.942C48.272 113.151 48.3257 113.358 48.3824 113.562Z" fill="#13585C"/>
<path d="M92.8839 92.0411H92.2703C87.9486 104.249 83.6261 116.457 79.3026 128.664L79.9236 128.643C84.244 116.442 88.5641 104.241 92.8839 92.0411Z" fill="#13585C"/>
<path d="M80.5941 101.098C82.2114 98.0779 83.8306 95.059 85.4518 92.0411H84.7945L65.8536 127.358C66.0474 127.407 66.2408 127.454 66.4336 127.5L80.5941 101.098Z" fill="#13585C"/>
<path d="M193.857 92.0411C193.842 92.2821 193.817 92.5316 193.781 92.7896C193.028 98.2454 188.848 103.007 188.677 108.567C173.756 104.321 157.206 95.8122 150.24 92.0411H193.857Z" fill="#19767B"/>
<path d="M190.524 101.734C190.056 101.63 189.589 101.519 189.124 101.403C187.826 101.079 186.536 100.718 185.253 100.341C183.8 99.9129 182.353 99.4616 180.913 98.9969C179.384 98.5041 177.86 97.9972 176.34 97.4762C174.814 96.9549 173.29 96.4237 171.77 95.8827C170.323 95.3693 168.879 94.8484 167.437 94.32C166.149 93.8487 164.862 93.3729 163.578 92.8924C162.824 92.61 162.071 92.3263 161.318 92.0411H159.698C160.654 92.4061 161.611 92.7687 162.569 93.1288C163.802 93.5923 165.038 94.0516 166.274 94.5067C167.685 95.0257 169.097 95.539 170.511 96.0467C172.02 96.5857 173.531 97.1176 175.045 97.6425C176.572 98.17 178.104 98.6861 179.639 99.191C181.108 99.6722 182.582 100.138 184.059 100.588C185.395 100.992 186.736 101.38 188.085 101.734C188.818 101.927 189.555 102.11 190.293 102.273C190.368 102.093 190.445 101.914 190.524 101.734Z" fill="#13585C"/>
<path d="M190.704 97.636C188.361 97.1382 186.046 96.5126 183.748 95.84C181.441 95.1651 179.15 94.4351 176.871 93.6721C175.298 93.1451 173.731 92.6019 172.169 92.0424H170.471L170.878 92.1906C172.582 92.8097 174.293 93.4098 176.01 93.9908C178.258 94.7516 180.516 95.48 182.79 96.1592C185.11 96.8522 187.446 97.499 189.808 98.0306C190.527 98.1923 191.252 98.3483 191.981 98.485C192.06 98.3053 192.138 98.1241 192.215 97.9413C191.711 97.8455 191.207 97.7419 190.704 97.636Z" fill="#13585C"/>
<path d="M188.314 93.0806C187.071 92.7657 185.837 92.4192 184.61 92.0411H182.719C183.226 92.2105 183.736 92.3726 184.246 92.5316C186.777 93.3209 189.35 93.9865 191.958 94.4828C192.428 94.5724 192.9 94.6559 193.373 94.7334C193.424 94.5486 193.472 94.3629 193.517 94.1763C191.767 93.8911 190.031 93.5165 188.314 93.0806Z" fill="#13585C"/>
<path d="M183.908 125.472C180.329 126.088 176.374 125.452 172.864 125.549C166.664 125.721 160.465 125.961 154.266 126.168L144.676 126.487C137.716 119.568 129.757 110.222 124.165 99.3612C122.823 96.4861 121.764 93.9712 120.994 92.042H128.276C134.376 99.3389 153.246 119.02 183.908 125.472Z" fill="#BCD845"/>
<path d="M192.214 119.104C191.654 121.012 190 122.709 188.264 123.824C187.739 124.164 187.185 124.459 186.609 124.704C185.744 125.066 184.839 125.311 183.908 125.47C153.245 119.02 134.376 99.3388 128.276 92.0411H137.881C151.844 103.243 181.785 115.145 192.214 119.104Z" fill="#93C74B"/>
<path d="M192.214 119.104C181.785 115.145 151.843 103.242 137.881 92.0411H150.242C157.207 95.8141 173.758 104.323 188.679 108.567C188.669 108.904 188.673 109.243 188.694 109.586C188.855 112.247 191.303 113.888 192.135 116.208C192.276 116.591 192.364 116.991 192.398 117.396C192.443 117.972 192.38 118.551 192.214 119.104Z" fill="#BCD845"/>
<path d="M144.675 126.486L141.627 126.588L122.992 127.209C117.768 114.978 114.084 99.3053 112.533 92.0411H120.876C121.837 94.5387 122.934 96.9821 124.163 99.3604C129.756 110.222 137.717 119.567 144.675 126.486Z" fill="#93C74B"/>
<path d="M177.55 57.9336H174.493V125.61H177.55V57.9336Z" fill="#786765"/>
<path d="M178.607 57.9336H175.551V125.61H178.607V57.9336Z" fill="#A8908E"/>
<path d="M145.65 57.9336H142.594V126.486H145.65V57.9336Z" fill="#786765"/>
<path d="M146.688 57.9336H143.632V126.486H146.688V57.9336Z" fill="#A8908E"/>
<path d="M158.018 52.2225C158.018 52.2672 158.015 52.3119 158.012 52.3565C158.022 52.3157 158.033 52.2749 158.044 52.2341L158.018 52.2225Z" fill="#69A31A"/>
<path d="M183.652 83.237C182.608 82.2787 182.685 80.5924 183.172 79.3485C181.692 78.1815 179.139 78.4768 180.093 80.8365C180.617 82.1921 182.918 84.544 184.448 83.5045C184.158 83.5196 183.873 83.4239 183.652 83.237Z" fill="#69A31A"/>
<path d="M185.897 81.759C186.026 81.4568 186.259 81.1168 186.523 80.8431C186.829 79.6288 186.703 77.2275 184.947 77.5071C184.081 77.7415 183.505 78.5466 183.172 79.3458C182.77 80.3468 182.687 81.5226 183.113 82.5028C183.671 83.828 184.991 83.7641 185.742 82.646C185.706 82.3815 185.758 82.077 185.897 81.759Z" fill="#69A31A"/>
<path d="M189.214 79.5568C188.247 79.5722 187.193 80.1343 186.523 80.8431C186.059 81.3298 185.66 82.0151 185.744 82.6457C186.226 84.4398 188.941 83.0892 189.766 82.1629C190.781 81.2185 191.024 79.5449 189.214 79.5568Z" fill="#69A31A"/>
<path d="M184.3 68.1066C184.578 66.9866 185.202 65.9479 186.04 65.1313C186.127 63.9955 186.543 61.1227 184.618 62.3054C183.313 63.2594 182.819 65.0035 182.821 66.5627C183.391 66.9976 183.891 67.5185 184.3 68.1066Z" fill="#69A31A"/>
<path d="M185.691 65.4969C185.025 66.2608 184.539 67.1413 184.299 68.1057C184.557 68.4718 184.77 68.8673 184.933 69.2838C185.663 68.1869 186.986 67.4701 188.297 67.2456C188.774 66.7189 189.283 66.2142 189.766 65.7141C190.178 65.2663 190.617 64.8586 190.772 64.3281C190.89 63.2474 189.307 63.4256 188.615 63.6166C187.484 63.9269 186.473 64.6168 185.691 65.4969Z" fill="#69A31A"/>
<path d="M184.762 70.7869C184.409 70.3692 184.652 69.7112 184.934 69.2854C183.378 65.1297 176.855 63.9031 180.187 68.1165C181.158 68.0395 182.195 68.2124 183.003 68.7495C183.894 69.3016 184.266 70.4346 183.053 70.8423C183.606 71.2212 184.657 71.8187 185.067 71.0013C184.95 70.9547 184.846 70.8812 184.762 70.7869Z" fill="#69A31A"/>
<path d="M191.209 68.2713C190.893 66.8022 188.279 67.0917 187.205 67.5464C186.096 67.9387 183.99 69.513 184.762 70.7873C185.607 71.5492 187.376 70.7565 188.341 70.4319C189.269 70.0185 191.113 69.3982 191.209 68.2713Z" fill="#69A31A"/>
<path d="M183.381 70.6803C184.609 69.8587 183.07 68.5508 182.118 68.3248C180.979 67.9502 179.524 68.0438 178.468 68.5674C176.527 69.5657 177.885 70.8635 179.474 71.0876C180.778 71.2805 182.217 71.2755 183.381 70.6803Z" fill="#69A31A"/>
<path d="M158.116 80.4627C156.586 79.3342 153.399 79.3396 155.323 81.8606C156.049 82.7784 158.97 85.6282 160.145 84.6434C159.296 84.7138 158.39 82.852 158.116 80.4627Z" fill="#69A31A"/>
<path d="M160.669 83.9319C159.874 82.976 160.541 81.5353 161.262 80.713C160.941 75.102 157.531 73.8634 158.116 80.4612C158.422 83.048 159.643 85.8985 160.829 84.0482C160.771 84.0172 160.716 83.978 160.669 83.9319Z" fill="#69A31A"/>
<path d="M165.629 79.5129C165.22 78.4792 163.75 79.0932 163.003 79.4166C161.907 79.9449 160.866 80.8719 160.467 82.0531C160.268 82.6599 160.203 83.4476 160.668 83.9319C161.314 84.5818 162.779 83.2774 163.396 82.8824C164.407 82.0697 165.848 80.9628 165.629 79.5129Z" fill="#69A31A"/>
<path d="M154.783 69.531C154.742 69.2172 154.817 68.8953 154.966 68.5896C153.767 69.3342 152.75 66.3201 152.704 65.4403C151.271 64.8682 149.843 65.629 150.809 67.2083C151.39 68.2197 153.557 70.4981 154.783 69.531Z" fill="#69A31A"/>
<path d="M152.88 66.3247C153.074 67.0388 153.393 67.7842 153.889 68.3205C154.302 68.7721 154.895 68.9246 155.131 68.302C154.909 67.3207 155.166 66.3605 155.646 65.453C155.721 64.3053 155.826 62.989 155.901 61.8521C155.894 61.0613 156.184 59.5887 155.463 59.0948C154.568 58.8449 153.826 60.0742 153.444 60.7657C152.6 62.4058 152.402 64.5259 152.88 66.3247Z" fill="#69A31A"/>
<path d="M155.056 67.4285C155.036 67.7219 155.063 68.0165 155.133 68.302C155.925 67.224 157.273 66.5849 158.598 66.5237C161.129 61.2423 155.227 63.4095 155.056 67.4285Z" fill="#69A31A"/>
<path d="M156.922 66.9187C155.846 67.3542 154.094 68.8052 155.03 70.0372C155.461 70.3626 156.062 70.1142 156.551 70.1527C157.105 70.1581 157.669 69.9818 158.189 69.7485C159.001 69.3754 160.592 68.4395 160.474 67.477C159.942 66.158 157.992 66.4379 156.922 66.9187Z" fill="#69A31A"/>
<path d="M133.383 67.5767C134.012 68.2812 134.986 68.8237 135.95 68.7267C135.679 68.4091 135.599 67.9852 135.586 67.5655C135.08 66.8167 134.813 65.9832 134.65 65.0723C134.275 64.9818 133.959 65.1466 133.615 65.2432C132.061 65.4761 132.596 66.809 133.383 67.5767Z" fill="#69A31A"/>
<path d="M135.211 66.91C135.318 67.1381 135.443 67.357 135.586 67.5645C135.568 66.1015 136.421 64.5484 137.6 63.6898C136.343 56.7875 133.144 62.6184 135.211 66.91Z" fill="#69A31A"/>
<path d="M136.255 65.2039C135.675 66.1849 135.046 68.3224 136.295 68.9619C136.472 67.5039 138.03 66.5869 139.309 66.081C141.165 62.2352 137.804 62.4912 136.255 65.2039Z" fill="#69A31A"/>
<path d="M138.223 66.5923C137.271 67.1698 136.061 68.1469 136.357 69.3431C136.835 70.2825 138.716 69.5814 139.528 69.3354C140.406 69.0189 141.314 68.5573 141.989 67.9059C143.213 66.7393 143.171 65.299 141.182 65.6036C140.213 65.7195 139.108 66.0841 138.223 66.5923Z" fill="#69A31A"/>
<path d="M139.1 80.7684C139.623 80.1335 140.481 79.67 141.291 79.7196C141.894 78.5646 142.638 77.5394 143.002 76.3043C143.308 74.7643 141.301 75.4423 140.607 75.9813C139.499 76.7328 138.629 77.872 138.12 79.1575C138.561 79.6169 138.895 80.1667 139.1 80.7684Z" fill="#69A31A"/>
<path d="M138.807 83.066C138.766 83.0976 138.722 83.1251 138.676 83.1484C138.647 83.2824 138.585 83.4068 138.494 83.5096C138.75 83.565 138.974 83.4464 139.203 83.2281C139.059 83.2087 138.923 83.1529 138.807 83.066Z" fill="#69A31A"/>
<path d="M141.493 81.62C141.771 81.6129 142.049 81.6476 142.317 81.7228C143.258 79.2849 140.254 79.231 139.1 80.7691C139.337 81.5122 139.443 82.5089 138.807 83.0668C138.979 83.1996 139.199 83.247 139.411 83.242C139.373 82.368 140.314 81.6465 141.493 81.62Z" fill="#69A31A"/>
<path d="M137.288 81.2901C137.974 81.655 138.796 82.2999 138.676 83.1485C139.256 82.8278 139.331 82.0512 139.256 81.4468C139.121 80.3641 138.431 79.2877 137.531 78.6455C136.865 78.1746 135.679 77.7073 135.09 78.4784C134.679 79.2357 135.202 80.1339 135.574 80.8173C136.171 80.8627 136.753 81.0233 137.288 81.2901Z" fill="#69A31A"/>
<path d="M138.676 83.1484C138.76 81.4055 136.053 80.6021 134.621 80.8423C133.816 80.9578 132.637 81.3975 132.699 82.355C132.9 83.8961 138.266 84.8332 138.676 83.1484Z" fill="#69A31A"/>
<path d="M142.317 81.722C141.123 81.3135 139.304 82.0843 139.412 83.2412C139.497 85.2401 143.688 85.1312 143.644 83.1218C143.63 82.4797 143.083 81.9403 142.317 81.722Z" fill="#69A31A"/>
<path d="M138.281 54.2761C138.008 54.1887 137.772 54.0236 137.663 53.7298C136.609 53.1908 136.57 51.712 136.729 50.6691C135.209 49.3527 133.465 49.7974 134.322 52.0131C134.72 53.0453 135.408 54.0686 136.25 54.7928C137.075 55.5578 138.267 55.6648 138.408 54.2977C138.365 54.2968 138.322 54.2896 138.281 54.2761Z" fill="#69A31A"/>
<path d="M136.667 51.801C136.73 52.5179 136.95 53.4234 137.664 53.7299C137.31 52.5587 138.968 51.684 139.791 51.1311C140.079 50.1455 140.835 48.2918 140.045 47.4575C139.188 46.8938 138.151 47.8502 137.64 48.5228C137.602 48.9463 137.397 49.352 137.041 49.5881C136.75 50.288 136.622 51.0446 136.667 51.801Z" fill="#69A31A"/>
<path d="M137.421 49.196C138.299 47.8509 136.59 45.5717 135.106 46.5942C134.265 47.2333 134.246 48.5789 134.998 49.2819C135.627 49.9322 136.903 50.0611 137.421 49.196Z" fill="#69A31A"/>
<path d="M159.495 50.3298C159.527 50.9073 159.213 50.9778 159.396 51.4895C159.189 52.0327 158.677 52.524 158.043 52.2341C157.843 52.989 157.811 54.4994 158.845 54.5344C159.324 54.4432 159.646 53.9731 160.019 53.6566C160.568 53.14 161.063 52.7076 161.692 52.2086C162.444 51.6157 163.259 50.9897 163.818 50.2093C164.832 48.7879 164.157 47.974 162.528 48.4337C161.443 48.7101 160.376 49.2307 159.506 49.9918C159.506 50.1069 159.498 50.2205 159.495 50.3298Z" fill="#69A31A"/>
<path d="M152.59 51.7975C153.308 52.966 155.439 54.2264 156.804 53.6389C156.15 53.2659 155.768 52.7403 155.231 52.1713C154.672 51.5268 154.089 50.8215 153.67 50.0592C152.738 50.1247 152.027 50.9266 152.59 51.7975Z" fill="#69A31A"/>
<path d="M157.373 50.0238C157.76 50.6964 158.022 51.446 158.018 52.2225C158.65 52.5305 159.163 52.057 159.391 51.5141C159.405 51.3963 159.307 51.2878 159.333 51.1357C159.519 50.6683 159.509 50.1489 159.512 49.6388C159.511 48.6099 159.455 47.5819 159.345 46.5588C159.219 45.6271 158.982 43.0896 157.611 44.0667C156.47 45.162 156.24 47.1217 156.399 48.7214C156.771 49.1184 157.098 49.5552 157.373 50.0238Z" fill="#69A31A"/>
<path d="M154.42 51.1892C155.031 51.9006 156.207 53.55 157.066 53.7094C158.18 53.5939 158.107 52.0038 157.871 51.1872C157.617 50.2686 157.041 49.4128 156.399 48.7232C155.708 48.0341 153.634 45.8765 153.125 47.7007C152.912 48.9796 153.68 50.2039 154.42 51.1892Z" fill="#69A31A"/>
<path d="M183.42 50.7619C183.458 50.9509 183.49 51.1311 183.512 51.3036C183.851 50.7685 184.44 50.2256 185.031 49.9284C185.276 48.0596 183.987 47.2103 182.722 48.6548C183.034 49.3778 183.261 50.0416 183.42 50.7619Z" fill="#69A31A"/>
<path d="M183.099 53.1065C183.087 53.0634 183.077 53.0184 183.068 52.9718C182.888 53.0488 182.666 53.0388 182.421 52.9471C182.541 53.4053 182.332 53.8288 181.926 54.1634C182.515 54.2931 183.456 54.3716 183.728 53.7422C183.419 53.6544 183.195 53.4311 183.099 53.1065Z" fill="#69A31A"/>
<path d="M181.055 51.8457C180.383 51.0372 179.845 49.9977 179.521 48.9647C176.516 46.9989 177.213 50.5902 178.573 51.9959C179.27 51.6859 180.314 51.6239 181.055 51.8457Z" fill="#69A31A"/>
<path d="M183.512 51.3035C183.613 52.0855 183.522 52.7765 183.067 52.9717C183.149 53.6054 183.788 53.8903 184.363 53.766C184.144 52.539 185.842 52.209 186.888 52.2529C189.731 49.049 185.147 48.642 183.512 51.3035Z" fill="#69A31A"/>
<path d="M180.663 51.3285C180.792 51.5141 180.922 51.6866 181.055 51.8456C181.765 52.0442 182.287 52.4489 182.421 52.9471C183.977 53.4584 183.563 51.0506 183.248 50.0908C182.904 48.9358 182.323 47.6522 181.636 46.6643C179.761 43.9812 178.756 45.9197 179.336 48.2813C179.565 49.3246 180.068 50.47 180.663 51.3285Z" fill="#69A31A"/>
<path d="M180.003 54.8116C183.343 54.6072 183.178 51.6323 179.873 51.7151C176.792 51.8256 176.442 54.8274 180.003 54.8116Z" fill="#69A31A"/>
<path d="M185.365 52.4528C184.155 52.8239 184.012 53.9196 185.003 54.6142C186.175 55.5671 189.628 55.9594 190.093 54.1256C190.044 52.9621 188.565 52.4701 187.41 52.2953C186.736 52.2025 185.921 52.2514 185.365 52.4528Z" fill="#69A31A"/>
<path d="M140.69 50.6683C139.679 51.1607 136.623 52.7538 137.924 54.0909C138.326 54.4213 138.523 54.2415 138.961 54.191C139.468 54.3254 139.969 54.1733 140.483 54.0401C145.369 52.8062 147.716 47.9517 140.69 50.6683Z" fill="#69A31A"/>
<path d="M134.923 65.8624C135.176 66.5115 135.663 67.1714 136.161 67.5587C135.394 65.6857 135.243 63.279 135.771 61.3259C134.662 62.4274 134.289 64.4048 134.923 65.8624Z" fill="#C4DD5D"/>
<path d="M137.095 65.512C137.433 64.8478 137.822 64.1918 138.262 63.6208C136.573 63.9262 135.501 66.0259 136.247 67.5648C136.452 66.8745 136.754 66.1757 137.095 65.512Z" fill="#C4DD5D"/>
<path d="M136.012 67.7361C135.051 67.5594 134.41 66.6581 133.818 65.9921C133.558 67.6737 135.052 68.92 136.574 67.8959C136.444 67.8539 136.216 67.7954 136.012 67.7361Z" fill="#C4DD5D"/>
<path d="M141.047 65.3268C140.149 65.2949 139.381 66.1165 138.766 66.7036C138.143 67.2846 137.322 67.8201 136.731 68.3452C137.773 68.2798 139.08 67.8255 139.741 66.9042C140.167 66.3629 140.532 65.6795 141.105 65.3303L141.047 65.3268Z" fill="#C4DD5D"/>
<path d="M155.285 69.1937C155.292 69.2064 155.211 69.0267 155.138 68.873C155.075 68.8784 155.011 68.8745 154.949 68.8615C154.999 68.8373 155.047 68.8084 155.092 68.7752C154.099 66.7251 152.826 64.2708 153.474 61.9045C151.58 64.2981 153.231 67.5675 155.285 69.1937Z" fill="#C4DD5D"/>
<path d="M153.948 68.8157C152.904 68.0307 151.899 66.8307 150.867 66.0583C151.192 67.6869 152.743 69.5087 154.568 69.2238C154.355 69.0988 154.148 68.9625 153.948 68.8157Z" fill="#C4DD5D"/>
<path d="M155 68.8349L154.949 68.8615C155.581 68.9646 155.996 68.284 156.31 67.822C156.503 67.5273 156.678 67.2212 156.834 66.9053C157.235 66.0785 157.506 65.1957 157.639 64.2873C157.552 64.2434 155.888 66.4302 155.658 67.5055C155.476 67.9602 155.447 68.5685 155 68.8349Z" fill="#C4DD5D"/>
<path d="M159.964 68.2956C158.369 68.2994 156.104 68.8969 154.727 69.6862C156.41 69.9395 158.842 69.3201 160.196 68.2929C160.196 68.2929 160.112 68.291 159.964 68.2956Z" fill="#C4DD5D"/>
<path d="M184.633 70.4708L184.608 70.4588L184.599 70.4735C184.599 70.4735 184.599 70.4669 184.599 70.455C184.58 70.4457 184.517 70.4142 184.519 70.4165C184.514 70.4165 184.581 70.4042 184.602 70.4007C184.604 70.3445 184.613 70.2128 184.621 70.12C184.515 70.0503 184.396 69.966 184.286 69.8867C184.299 70.0577 184.343 70.3992 184.352 70.5235C184.57 70.5698 184.791 70.5934 185.014 70.594C184.883 70.5677 184.755 70.5263 184.633 70.4708Z" fill="#C4DD5D"/>
<path d="M184.647 70.3914C184.746 70.3729 184.845 70.3493 184.942 70.3206C184.883 70.2854 184.819 70.2469 184.752 70.2051C184.713 70.2759 184.672 70.3483 184.647 70.3914Z" fill="#C4DD5D"/>
<path d="M184.121 70.1982C183.806 69.6454 183.787 69.4282 183.23 69.0109C182.556 68.4045 181.898 67.71 181.305 67.1094C181.515 68.6274 182.752 70.2248 184.346 70.5212C184.321 70.4901 184.181 70.2902 184.121 70.1982Z" fill="#C4DD5D"/>
<path d="M184.169 70.6652C182.938 69.9992 181.642 69.4575 180.303 69.0482C181.076 70.4269 182.89 71.1984 184.425 70.8034C184.432 70.8073 184.231 70.696 184.169 70.6652Z" fill="#C4DD5D"/>
<path d="M184.31 70.1328C184.115 68.1655 184.161 66.182 184.446 64.2257C183.018 65.9582 182.976 68.7545 184.353 70.5312C184.351 70.4897 184.324 70.2475 184.31 70.1328Z" fill="#C4DD5D"/>
<path d="M184.606 70.4588L184.6 70.455C184.6 70.4669 184.6 70.4734 184.6 70.4734L184.606 70.4588Z" fill="#C4DD5D"/>
<path d="M184.602 70.3996L184.647 70.3915C185.661 68.5539 186.73 65.8947 189.153 65.5928C187.882 65.1308 186.457 65.8489 185.682 66.8895C184.908 67.9302 184.67 69.2257 184.602 70.3996Z" fill="#C4DD5D"/>
<path d="M189.411 68.7695C187.648 68.458 186.163 70.1412 184.52 70.4154C186.293 71.2939 188.022 69.5191 189.466 68.7795L189.411 68.7695Z" fill="#C4DD5D"/>
<path d="M184.12 81.759C184.246 82.139 184.487 82.554 184.745 82.827C184.924 81.5747 184.839 80.2992 184.496 79.0813C183.973 79.814 183.807 80.8981 184.12 81.759Z" fill="#C4DD5D"/>
<path d="M184.752 82.9471C184.387 82.7296 184.217 82.3476 183.906 81.963C183.231 81.0675 182.067 80.3545 181.107 80.1069C181.674 80.9562 183.647 83.2639 184.851 82.9991C184.842 82.9941 184.777 82.9636 184.752 82.9471Z" fill="#C4DD5D"/>
<path d="M189.38 80.2763C189.378 80.2154 189.372 80.1547 189.361 80.0946C188.563 81.1653 186.728 81.538 186.299 82.9224C187.475 82.39 189.358 81.8799 189.38 80.2763Z" fill="#C4DD5D"/>
<path d="M160.069 82.8077C160.069 82.8077 160.066 82.7784 160.06 82.7249L159.993 82.7188C160.042 82.7769 160.069 82.8077 160.069 82.8077Z" fill="#C4DD5D"/>
<path d="M159.953 82.2991C159.97 82.3084 159.986 82.318 160.001 82.3276C159.738 80.5445 159.324 78.7865 158.764 77.0724C158.314 78.7086 158.609 80.6402 159.535 82.0774C159.674 82.1494 159.819 82.2233 159.953 82.2991Z" fill="#C4DD5D"/>
<path d="M160.196 82.7461C160.164 82.8319 160.14 82.9204 160.124 83.0106C160.207 82.9475 160.308 82.872 160.406 82.8112C160.339 82.7814 160.268 82.7596 160.196 82.7461Z" fill="#C4DD5D"/>
<path d="M162.859 79.4675C162.851 79.3397 162.842 79.2704 162.842 79.2704C162.178 80.3353 161.04 81.4545 160.29 82.539C160.363 82.6058 160.424 82.6849 160.47 82.7727C161.895 82.1563 162.908 81.081 162.859 79.4675Z" fill="#C4DD5D"/>
<path d="M160.289 82.539C159.624 82.027 158.787 81.7563 158.076 81.2908C157.53 80.9659 157.011 80.4627 156.496 80.179C156.87 81.3594 157.706 82.4027 159.019 82.6156C159.522 82.7538 160.055 82.6191 160.507 82.8628C160.462 82.7386 160.388 82.6273 160.289 82.539Z" fill="#C4DD5D"/>
<path d="M139.032 81.1379C139.3 80.0326 139.574 78.7706 140.256 77.8562C138.316 78.5057 137.985 81.0598 138.59 82.7299C138.752 82.2856 138.9 81.68 139.032 81.1379Z" fill="#C4DD5D"/>
<path d="M138.374 83.0661C137.313 81.7185 136.394 80.2654 135.633 78.7299C135.343 80.5009 136.425 82.4201 138.052 83.0969L138 83.1123C138.192 83.2036 138.391 83.2798 138.595 83.3402C138.605 83.3499 138.43 83.1304 138.374 83.0661Z" fill="#C4DD5D"/>
<path d="M137.517 82.8039C136.654 82.3161 135.008 82.268 134.185 82.6114C135.151 83.2524 136.925 83.4869 138.051 83.0965C137.881 82.9855 137.702 82.8877 137.517 82.8039Z" fill="#C4DD5D"/>
<path d="M141.882 83.1947C140.935 83.0819 139.93 82.9522 138.994 82.792C139.425 83.9982 141.281 84.2523 142.024 83.2074C142.023 83.2074 141.97 83.2009 141.882 83.1947Z" fill="#C4DD5D"/>
<path d="M139.371 82.7419C140.099 82.7885 140.907 82.2137 141.065 81.4637C141.146 81.1353 141.095 80.7322 141.384 80.5366C140.835 80.3695 140.49 81.1033 140.186 81.4479C139.803 81.9022 139.322 82.3476 138.806 82.6064C138.983 82.69 139.175 82.7361 139.371 82.7419Z" fill="#C4DD5D"/>
<path d="M184.44 52.8328C185.775 52.5375 186.525 51.5169 186.409 50.1628C185.036 50.3326 184.193 51.4795 184.44 52.8328Z" fill="#C4DD5D"/>
<path d="M188.338 53.9203C187.557 52.5097 185.472 52.2518 184.367 53.4152C185.699 54.1325 186.939 54.3392 188.432 54.0971C188.404 54.0366 188.373 53.9776 188.338 53.9203Z" fill="#C4DD5D"/>
<path d="M182.441 52.8929C181.049 52.556 179.753 54.1592 180.411 55.4339C180.865 54.4856 181.714 53.5158 182.594 52.9379C182.544 52.9199 182.493 52.9049 182.441 52.8929Z" fill="#C4DD5D"/>
<path d="M183.159 52.9294C182.685 53.6201 182.819 54.6731 183.439 55.2244C183.913 54.5337 183.779 53.4808 183.159 52.9294Z" fill="#C4DD5D"/>
<path d="M180.902 52.0678C181.132 52.0778 181.446 52.0825 181.651 52.0678C181.01 51.0942 179.53 50.7846 178.55 51.4191C179.255 51.776 180.097 52.052 180.902 52.0678Z" fill="#C4DD5D"/>
<path d="M182.343 51.5607C182.43 50.644 181.692 49.4374 180.847 49.0909C180.761 50.0076 181.499 51.2138 182.343 51.5607Z" fill="#C4DD5D"/>
<path d="M184.517 48.5562C184.582 48.2898 184.667 47.9402 184.711 47.6989C183.497 48.3576 182.918 50.0142 183.459 51.2794C183.895 50.4439 184.302 49.4856 184.517 48.5562Z" fill="#C4DD5D"/>
<path d="M158.739 51.6255C159.718 49.7678 162.094 48.7195 163.041 46.8488C161.285 47.9071 158.692 49.2165 158.739 51.6255Z" fill="#C4DD5D"/>
<path d="M163.328 51.369C161.867 50.5332 159.825 50.7984 158.634 51.985C159.113 52.0551 159.61 51.881 160.106 51.8575C161.21 51.7382 162.417 51.578 163.509 51.4749C163.508 51.4768 163.444 51.436 163.328 51.369Z" fill="#C4DD5D"/>
<path d="M158.633 51.9869C158.512 51.9669 158.388 51.9585 158.265 51.9619C158.825 52.8416 159.51 53.6364 160.298 54.322C160.517 53.274 159.703 52.1336 158.633 51.9869Z" fill="#C4DD5D"/>
<path d="M157.478 51.6944C156.415 51.2158 154.749 51.9966 155.141 53.3018C155.704 52.4116 157.1 52.342 157.988 51.9308C157.826 51.8357 157.655 51.7566 157.478 51.6944Z" fill="#C4DD5D"/>
<path d="M155.606 49.7682C156.279 50.4362 157.05 51.0772 157.793 51.6586C157.979 50.4239 156.65 49.2716 155.447 49.6223C155.44 49.6192 155.564 49.7336 155.606 49.7682Z" fill="#C4DD5D"/>
<path d="M157.816 47.8554C157.774 47.8035 157.746 47.7758 157.746 47.7758C157.498 48.0632 157.352 48.4231 157.328 48.801C157.305 49.1788 157.405 49.554 157.615 49.8698C158.239 49.4185 158.352 48.4237 157.816 47.8554Z" fill="#C4DD5D"/>
<path d="M144.441 50.0742C142.488 49.4713 140.127 50.5855 139.375 52.4731C140.977 51.3691 142.776 50.5806 144.675 50.1504C144.675 50.1504 144.593 50.1204 144.441 50.0742Z" fill="#C4DD5D"/>
<path d="M138.094 53.3568C137.986 52.0509 136.949 50.8239 135.677 50.5078C136.41 51.7314 137.216 52.9101 138.09 54.0375C138.117 53.8114 138.118 53.5831 138.094 53.3568Z" fill="#C4DD5D"/>
<path d="M136.575 49.6223C136.745 49.6746 136.919 49.7115 137.096 49.7324C136.677 48.82 135.712 48.06 135.257 47.176C134.689 48.1293 135.58 49.4021 136.575 49.6223Z" fill="#C4DD5D"/>
<path d="M194.232 83.7679H120.786C120.785 84.9195 121.241 86.0248 122.055 86.8425H192.963C193.777 86.0247 194.233 84.9194 194.232 83.7679Z" fill="#E8E3E3"/>
<path d="M122.055 86.8425C122.463 87.2548 122.95 87.5821 123.486 87.8053C124.022 88.0284 124.598 88.143 125.179 88.1423H189.838C190.42 88.143 190.995 88.0284 191.532 87.8052C192.068 87.5821 192.555 87.2548 192.963 86.8425H122.055Z" fill="#A8908E"/>
<path d="M194.232 69.1249H120.786C120.786 69.7099 120.903 70.2891 121.132 70.8279C121.361 71.3668 121.696 71.8543 122.118 72.2615H192.9C193.322 71.8542 193.657 71.3667 193.886 70.8278C194.115 70.289 194.232 69.7099 194.232 69.1249Z" fill="#E8E3E3"/>
<path d="M122.118 72.2615C122.937 73.0564 124.036 73.5006 125.179 73.4992H189.838C190.982 73.5006 192.081 73.0563 192.9 72.2615H122.118Z" fill="#A8908E"/>
<path d="M194.232 53.8673V53.8199H120.786V53.8673C120.785 54.9511 121.193 55.9957 121.93 56.7933H193.088C193.825 55.9957 194.233 54.9511 194.232 53.8673Z" fill="#E8E3E3"/>
<path d="M121.93 56.7925C122.337 57.2348 122.831 57.5879 123.383 57.8292C123.934 58.0706 124.53 58.1949 125.132 58.1943H189.886C190.488 58.195 191.084 58.0707 191.635 57.8293C192.186 57.588 192.681 57.2349 193.088 56.7925H121.93Z" fill="#A8908E"/>
<path d="M123.441 11.6413C119.092 12.7332 115.758 16.8353 115.347 21.2817C114.936 25.7281 117.33 30.2522 121.115 32.6488C124.9 35.0454 129.882 35.3226 134.022 33.6059C138.163 31.8892 141.413 28.2929 142.954 24.0964C143.906 21.5073 144.206 18.5109 142.932 16.063C142.114 14.4911 140.498 13.2664 138.741 12.9445C137.371 12.6939 136.277 13.3257 134.952 13.3295C133.105 13.3365 131.298 12.1403 129.509 11.7225C127.517 11.2609 125.438 11.14 123.441 11.6413Z" fill="#A0D5FD"/>
<path d="M87.9558 30.3354C86.8449 32.2846 86.2182 34.6897 87.0534 36.7706C87.6194 38.1813 88.8026 39.2824 90.1413 40.0104C94.1325 42.1806 99.5253 40.9906 102.547 37.6068C105.128 34.7151 107.811 25.4582 102.781 23.5105C97.5517 21.4854 90.4348 25.9875 87.9558 30.3354Z" fill="#A0D5FD"/>
<path d="M48.6214 79.5891C48.1477 81.3662 48.7633 83.4591 50.2999 84.4786C51.8365 85.4981 54.2184 85.1285 55.1638 83.5492C55.6773 82.691 55.7368 81.6438 55.726 80.6455C55.7063 78.8426 55.3602 75.9593 53.1141 75.6139C51.0342 75.294 49.0823 77.8593 48.6214 79.5891Z" fill="#A0D5FD"/>
<path d="M128.498 140.611C116.403 144.371 108.187 143.449 103.432 142.023L97.0688 130.488C97.0688 130.488 86.6265 124.529 84.0795 113.498C81.5325 102.467 99.4893 101.625 99.4893 101.625L108.731 113.411C108.467 112.741 108.238 112.057 108.044 111.363C106.218 104.783 109.204 101.57 110.041 98.6682L123.274 102.081C124.364 105.84 124.638 111.191 121.072 117.206C121.077 117.231 121.084 117.256 121.09 117.281C123.676 128.083 126.619 136.069 128.498 140.611Z" fill="#F8877F"/>
<path d="M58.8404 66.8636L58.6788 67.3724L63.5478 68.9047L63.7093 68.3959L58.8404 66.8636Z" fill="#93C74B"/>
<path d="M72.9916 55.4242L72.4842 55.5959L74.6482 61.9361L75.1556 61.7644L72.9916 55.4242Z" fill="#93C74B"/>
<path d="M98.8394 54.3011L95.1299 58.9829L95.5507 59.3134L99.2601 54.6317L98.8394 54.3011Z" fill="#93C74B"/>
<path d="M110.48 67.7001L100.153 72.0095L100.361 72.5017L110.687 68.1922L110.48 67.7001Z" fill="#93C74B"/>
<path d="M88.0149 56.9239L67.8184 63.9504C64.444 65.1244 62.6644 68.7997 63.8434 72.1595L80.4921 119.602C81.6712 122.962 85.3624 124.734 88.7367 123.56L108.933 116.533C112.308 115.359 114.087 111.684 112.908 108.324L96.2595 60.8818C95.0805 57.522 91.3892 55.75 88.0149 56.9239Z" fill="#023240"/>
<path d="M88.2393 58.4576L68.602 65.2895C65.7803 66.2712 64.2921 69.3447 65.278 72.1543L81.6178 118.716C82.6038 121.526 85.6906 123.008 88.5123 122.026L108.15 115.194C110.971 114.213 112.46 111.139 111.474 108.329L95.1338 61.7673C94.1479 58.9577 91.0611 57.4759 88.2393 58.4576Z" fill="#F6FFD1"/>
<path d="M98.1511 118.097C98.7488 118.097 99.2333 117.615 99.2333 117.02C99.2333 116.424 98.7488 115.942 98.1511 115.942C97.5533 115.942 97.0688 116.424 97.0688 117.02C97.0688 117.615 97.5533 118.097 98.1511 118.097Z" fill="#023240"/>
<path d="M73.1537 72.1672L70.9898 72.92L72.7751 78.0073L74.9389 77.2545L73.1537 72.1672Z" fill="#93C74B"/>
<path d="M78.8711 73.4689L76.7072 74.2217L77.4633 76.3762L79.6272 75.6234L78.8711 73.4689Z" fill="#93C74B"/>
<path d="M82.0155 68.0783L79.8609 68.8314L81.836 74.4333L83.9907 73.6801L82.0155 68.0783Z" fill="#93C74B"/>
<path d="M86.4942 65.2092L84.3304 65.962L86.8402 73.114L89.004 72.3612L86.4942 65.2092Z" fill="#93C74B"/>
<path d="M90.8989 62.7701L88.7351 63.5229L91.5284 71.4829L93.6923 70.7301L90.8989 62.7701Z" fill="#93C74B"/>
<path d="M97.7798 69.3081L67.924 79.6951L69.1946 83.3158L99.0504 72.9288L97.7798 69.3081Z" fill="#FDE81D"/>
<path d="M78.7011 82.9301L75.5455 84.0279C74.4998 84.3917 73.9483 85.5307 74.3137 86.5719L75.4163 89.7139C75.7816 90.7551 76.9255 91.3042 77.9712 90.9404L81.1269 89.8426C82.1726 89.4788 82.7241 88.3398 82.3587 87.2986L81.2561 84.1566C80.8907 83.1154 79.7468 82.5663 78.7011 82.9301Z" fill="#FDE81D"/>
<path d="M81.6308 91.2791L78.4752 92.3769C77.4295 92.7407 76.878 93.8797 77.2434 94.9209L78.346 98.0629C78.7113 99.1041 79.8552 99.6532 80.9009 99.2894L84.0566 98.1916C85.1023 97.8278 85.6538 96.6888 85.2884 95.6476L84.1858 92.5056C83.8204 91.4644 82.6765 90.9153 81.6308 91.2791Z" fill="#FDE81D"/>
<path d="M90.1963 78.931L83.7047 81.1895L84.1287 82.3976L90.6203 80.1391L90.1963 78.931Z" fill="#93C74B"/>
<path d="M97.6891 79.5246L84.7058 84.0415L85.1298 85.2496L98.113 80.7327L97.6891 79.5246Z" fill="#93C74B"/>
<path d="M88.5022 85.9214L85.7072 86.8938L86.1311 88.1019L88.9261 87.1295L88.5022 85.9214Z" fill="#93C74B"/>
<path d="M94.6142 86.762L86.6347 89.5381L87.0587 90.7462L95.0381 87.9701L94.6142 86.762Z" fill="#93C74B"/>
<path d="M98.7258 88.5322L87.636 92.3904L88.0599 93.5985L99.1498 89.7403L98.7258 88.5322Z" fill="#93C74B"/>
<path d="M101.62 90.7257L88.6369 95.2427L89.0608 96.4508L102.044 91.9339L101.62 90.7257Z" fill="#93C74B"/>
<path d="M102.315 94.1562L79.9179 101.948C79.0161 102.262 78.5405 103.244 78.8556 104.142L83.7948 118.217C84.1098 119.115 85.0963 119.588 85.998 119.275L108.396 111.482C109.297 111.169 109.773 110.186 109.458 109.289L104.519 95.2139C104.204 94.316 103.217 93.8425 102.315 94.1562Z" fill="#93C74B"/>
<path d="M90.4479 103.873C90.7065 104.612 90.6723 105.421 90.3521 106.135C90.0319 106.85 89.4499 107.416 88.7249 107.717C88 108.019 87.1867 108.034 86.4511 107.759C85.7155 107.484 85.113 106.94 84.7667 106.238C84.4203 105.535 84.3562 104.728 84.5875 103.98C84.8187 103.232 85.3278 102.601 86.0109 102.214C86.694 101.827 87.4995 101.715 88.2631 101.899C89.0266 102.084 89.6907 102.552 90.1196 103.207C90.2557 103.415 90.366 103.639 90.4479 103.873Z" fill="#52A756"/>
<path d="M90.4479 103.873C90.6265 104.38 90.6681 104.924 90.5685 105.452L87.5324 104.887C87.5324 104.887 87.9852 103.224 88.2946 101.907C88.7887 102.032 89.244 102.277 89.6198 102.62C89.9956 102.963 90.2801 103.394 90.4479 103.873Z" fill="#FE4775"/>
<path d="M98.2013 101.173L98.2044 98.0977C97.5207 98.0971 96.8561 98.3226 96.315 98.7387C95.7739 99.1548 95.3868 99.738 95.2145 100.397C95.0421 101.056 95.0943 101.753 95.3629 102.379C95.6314 103.005 96.1011 103.524 96.6982 103.856C97.2954 104.188 97.9862 104.312 98.6623 104.211C99.3383 104.109 99.9615 103.787 100.434 103.295C100.906 102.803 101.201 102.169 101.272 101.492C101.344 100.814 101.187 100.133 100.827 99.5541L98.2013 101.173Z" fill="#52A756"/>
<path d="M100.827 99.5541C100.814 99.5337 100.802 99.5133 100.789 99.4933C100.508 99.0654 100.125 98.7138 99.6735 98.4702C99.2223 98.2266 98.7173 98.0985 98.2041 98.0977L98.201 101.173L100.827 99.5541Z" fill="#FE4775"/>
<path d="M92.0286 111.517L88.6147 109.179L87.4064 113.126L88.921 112.599L89.9607 115.561L91.5534 115.007L90.5136 112.044L92.0286 111.517Z" fill="#FE4775"/>
<path d="M98.3908 109.102L101.805 111.44L103.013 107.494L101.498 108.021L100.459 105.058L98.866 105.612L99.9054 108.575L98.3908 109.102Z" fill="#F6FFD1"/>
<g opacity="0.5">
<path d="M93.4334 59.3539L75.0628 100.027L70.685 87.5532L83.7234 60.0257L88.2404 58.4541C89.1112 58.1504 90.0455 58.0737 90.9545 58.2312C91.8634 58.3887 92.7168 58.7752 93.4334 59.3539Z" fill="white"/>
<path d="M105.515 91.3389L90.2662 121.413L88.5153 122.023C87.1601 122.494 85.6725 122.409 84.3797 121.788C83.0868 121.168 82.0945 120.061 81.6211 118.712L77.6349 107.354L97.2196 67.7037L105.515 91.3389Z" fill="white"/>
<path opacity="0.4" d="M93.4334 59.3539L75.0628 100.027L70.685 87.5532L83.7234 60.0257L88.2404 58.4541C89.1112 58.1504 90.0455 58.0737 90.9545 58.2312C91.8634 58.3887 92.7168 58.7752 93.4334 59.3539Z" fill="white"/>
<path opacity="0.3" d="M105.515 91.3389L90.2662 121.413L88.5153 122.023C87.1601 122.494 85.6725 122.409 84.3797 121.788C83.0868 121.168 82.0945 120.061 81.6211 118.712L77.6349 107.354L97.2196 67.7037L105.515 91.3389Z" fill="white"/>
</g>
<path d="M69.136 86.7343L67.4455 87.7611C67.1152 87.9615 66.863 88.2676 66.7301 88.6293C66.5972 88.991 66.5915 89.3869 66.7139 89.7523L67.3326 91.5984C67.4047 91.8136 67.5194 92.0123 67.6697 92.1828C67.8201 92.3533 68.0032 92.4922 68.2083 92.5912C68.4133 92.6903 68.6362 92.7475 68.8638 92.7595C69.0913 92.7716 69.3191 92.7382 69.5335 92.6614L71.5577 91.9356C71.7784 91.8565 71.9803 91.733 72.151 91.5728C72.3217 91.4127 72.4574 91.2192 72.5498 91.0046C72.6422 90.7899 72.6892 90.5587 72.6879 90.3251C72.6867 90.0916 72.6372 89.8608 72.5425 89.6472L71.5909 87.5C71.4926 87.2781 71.3478 87.0797 71.1662 86.918C70.9846 86.7564 70.7704 86.6352 70.5379 86.5627C70.3055 86.4902 70.0601 86.468 69.8183 86.4976C69.5765 86.5272 69.3439 86.6079 69.136 86.7343Z" fill="#F8877F"/>
<path d="M69.7516 99.2369L70.5249 101.689C70.6062 101.946 70.7388 102.185 70.9149 102.391C71.0909 102.597 71.3068 102.765 71.5495 102.886C71.7923 103.007 72.0571 103.078 72.328 103.095C72.5989 103.111 72.8704 103.074 73.1264 102.984L74.9619 102.339C75.4616 102.163 75.8721 101.799 76.1048 101.325C76.3376 100.851 76.3742 100.305 76.2066 99.8044L75.4584 97.5694C75.2993 97.0942 74.9679 96.6951 74.529 96.4502C74.0901 96.2053 73.5752 96.1321 73.085 96.245L71.224 96.6735C70.9527 96.7361 70.6973 96.8538 70.4739 97.0192C70.2504 97.1846 70.0637 97.3943 69.9255 97.635C69.7872 97.8756 69.7004 98.1422 69.6705 98.4178C69.6406 98.6935 69.6682 98.9723 69.7516 99.2369Z" fill="#F8877F"/>
<path d="M73.5053 110.547L74.2272 112.421C74.4181 112.917 74.7978 113.317 75.2837 113.535C75.7697 113.753 76.3225 113.772 76.8218 113.586L78.3657 113.012C78.863 112.827 79.2674 112.455 79.4917 111.977C79.716 111.498 79.7421 110.95 79.5644 110.452L78.8854 108.551C78.7953 108.299 78.6554 108.067 78.474 107.869C78.2926 107.671 78.0733 107.511 77.829 107.398C77.5847 107.286 77.3203 107.223 77.0513 107.214C76.7823 107.205 76.5142 107.249 76.2627 107.344L74.6773 107.946C74.4285 108.039 74.2007 108.181 74.0071 108.363C73.8134 108.544 73.6577 108.762 73.5488 109.004C73.4399 109.246 73.38 109.506 73.3726 109.771C73.3651 110.036 73.4102 110.3 73.5053 110.547Z" fill="#F8877F"/>
<path d="M77.9566 118.986L78.1384 119.46C78.318 119.927 78.6663 120.312 79.1151 120.537C79.564 120.763 80.0812 120.814 80.5659 120.681L80.7693 120.624C81.0423 120.549 81.2964 120.417 81.5151 120.238C81.7338 120.059 81.9121 119.836 82.0386 119.583C82.1651 119.331 82.2369 119.055 82.2493 118.773C82.2617 118.491 82.2144 118.21 82.1106 117.947L81.9258 117.48C81.7464 117.027 81.408 116.654 80.9733 116.43C80.5386 116.207 80.0372 116.147 79.5621 116.264L79.3614 116.313C79.0832 116.381 78.8228 116.508 78.5973 116.684C78.3719 116.86 78.1866 117.082 78.0538 117.334C77.9209 117.587 77.8436 117.865 77.8268 118.15C77.8101 118.435 77.8543 118.72 77.9566 118.986Z" fill="#F8877F"/>
<path d="M120.548 96.4756C120.548 96.4756 105.696 78.8811 104.501 77.6942C103.306 76.5072 102.734 77.6942 102.734 77.6942C102.734 77.6942 98.8181 81.7367 101.588 86.9661C104.357 92.1956 110.233 97.5205 110.233 97.713C110.199 98.0369 110.135 98.3571 110.043 98.6693L123.275 102.082C122.264 98.592 120.548 96.4756 120.548 96.4756Z" fill="#F8877F"/>
<path d="M104.359 78.49C104.359 78.49 102.21 79.5838 104.359 82.817C106.508 86.0502 108.514 85.624 108.514 85.624L109.728 84.315L104.359 78.49Z" fill="white"/>
<path d="M121.073 117.206C121.073 117.206 120.309 122.092 116.011 123.138C119.736 124.089 121.877 120.443 121.877 120.443L121.073 117.206Z" fill="#EA716E"/>
<path d="M97.0688 130.488C97.0688 130.488 101.374 130.912 103.565 128.732C103.565 132.172 97.8263 131.859 97.8263 131.859L97.0688 130.488Z" fill="#EA716E"/>
<path d="M120.786 75.3995C126.694 75.3995 131.483 70.6311 131.483 64.7489C131.483 58.8667 126.694 54.0983 120.786 54.0983C114.879 54.0983 110.089 58.8667 110.089 64.7489C110.089 70.6311 114.879 75.3995 120.786 75.3995Z" fill="white" stroke="#93C74B" stroke-width="13.86" stroke-miterlimit="10"/>
<path d="M104.359 55.8732C110.267 55.8732 115.056 51.1047 115.056 45.2225C115.056 39.3404 110.267 34.5719 104.359 34.5719C98.4514 34.5719 93.6623 39.3404 93.6623 45.2225C93.6623 51.1047 98.4514 55.8732 104.359 55.8732Z" fill="white" stroke="#93C74B" stroke-width="13.86" stroke-miterlimit="10"/>
<path d="M104.359 53.9397C109.194 53.9397 113.114 50.0369 113.114 45.2225C113.114 40.4082 109.194 36.5054 104.359 36.5054C99.5238 36.5054 95.6041 40.4082 95.6041 45.2225C95.6041 50.0369 99.5238 53.9397 104.359 53.9397Z" fill="#DAEEFD"/>
<path d="M120.786 73.4661C125.621 73.4661 129.541 69.5633 129.541 64.7489C129.541 59.9346 125.621 56.0317 120.786 56.0317C115.951 56.0317 112.031 59.9346 112.031 64.7489C112.031 69.5633 115.951 73.4661 120.786 73.4661Z" fill="#DAEEFD"/>
<path d="M107.702 47.1864C107.702 47.6235 107.615 48.0563 107.447 48.4601C107.279 48.8639 107.033 49.2308 106.723 49.5399C106.412 49.8489 106.044 50.0941 105.638 50.2613C105.233 50.4286 104.798 50.5147 104.359 50.5147C103.92 50.5147 103.485 50.4286 103.08 50.2613C102.674 50.0941 102.306 49.8489 101.995 49.5399C101.685 49.2308 101.439 48.8639 101.271 48.4601C101.103 48.0563 101.016 47.6235 101.016 47.1864C101.016 45.3484 104.359 40.4585 104.359 40.4585C104.359 40.4585 107.702 45.3484 107.702 47.1864Z" fill="#75BEE9"/>
<path d="M69.658 55.8732C75.5657 55.8732 80.3547 51.1047 80.3547 45.2225C80.3547 39.3404 75.5657 34.5719 69.658 34.5719C63.7504 34.5719 58.9613 39.3404 58.9613 45.2225C58.9613 51.1047 63.7504 55.8732 69.658 55.8732Z" fill="white" stroke="#93C74B" stroke-width="13.86" stroke-miterlimit="10"/>
<path d="M69.658 53.9397C74.4932 53.9397 78.4129 50.0369 78.4129 45.2225C78.4129 40.4082 74.4932 36.5054 69.658 36.5054C64.8228 36.5054 60.9031 40.4082 60.9031 45.2225C60.9031 50.0369 64.8228 53.9397 69.658 53.9397Z" fill="#DAEEFD"/>
<path d="M48.4652 74.8764C54.3728 74.8764 59.1619 70.1079 59.1619 64.2257C59.1619 58.3435 54.3728 53.5751 48.4652 53.5751C42.5575 53.5751 37.7684 58.3435 37.7684 64.2257C37.7684 70.1079 42.5575 74.8764 48.4652 74.8764Z" fill="#DAEEFD" stroke="#93C74B" stroke-width="13.86" stroke-miterlimit="10"/>
<path d="M48.4652 72.9429C53.3004 72.9429 57.2201 69.0401 57.2201 64.2257C57.2201 59.4114 53.3004 55.5085 48.4652 55.5085C43.63 55.5085 39.7103 59.4114 39.7103 64.2257C39.7103 69.0401 43.63 72.9429 48.4652 72.9429Z" fill="white"/>
<path d="M50.6413 63.443C50.5783 63.4688 50.5176 63.4973 50.4577 63.5277C50.4631 63.4742 50.467 63.4203 50.4685 63.366C50.523 61.6485 48.6987 59.5507 48.6987 59.5507C48.6987 59.5507 46.7867 61.5315 46.7321 63.2467C46.7278 63.3972 46.7371 63.5478 46.76 63.6967C46.6125 63.5953 46.4548 63.5097 46.2894 63.4411C44.694 62.7866 42.6884 63.9755 42.6884 63.9755C42.6884 63.9755 43.2684 66.2269 44.8642 66.8822C46.354 67.4936 48.2011 66.4972 48.4393 66.3625C48.4779 66.3967 48.5019 66.4148 48.5019 66.4148L48.5383 66.3886C48.9114 66.5919 50.6506 67.4636 52.0662 66.8822C53.6616 66.2277 54.2424 63.9755 54.2424 63.9755C54.2424 63.9755 52.2363 62.7881 50.6413 63.443Z" fill="#75BEE9"/>
<path d="M120.176 66.6143V60.1043C120.176 59.9432 120.144 59.7837 120.082 59.6348C120.02 59.4859 119.93 59.3507 119.815 59.2367C119.701 59.1228 119.565 59.0324 119.416 58.9707C119.266 58.9091 119.106 58.8773 118.944 58.8773C118.617 58.8773 118.304 59.0066 118.073 59.2367C117.842 59.4668 117.712 59.7789 117.712 60.1043V66.6143C117.397 66.826 117.143 67.115 116.974 67.4534C116.805 67.7918 116.727 68.168 116.747 68.5454C116.767 68.9228 116.885 69.2886 117.089 69.6072C117.293 69.9258 117.577 70.1865 117.912 70.3637C118.247 70.541 118.623 70.6289 119.002 70.6189C119.382 70.6089 119.752 70.5014 120.077 70.3067C120.403 70.112 120.672 69.8368 120.859 69.5079C121.046 69.179 121.144 68.8075 121.144 68.4296C121.143 67.6742 120.76 66.8957 120.176 66.6143Z" fill="white"/>
<path d="M124.41 62.0212H122.014C121.783 62.0212 121.595 62.2081 121.595 62.4386V62.6226C121.595 62.8531 121.783 63.04 122.014 63.04H124.41C124.642 63.04 124.83 62.8531 124.83 62.6226V62.4386C124.83 62.2081 124.642 62.0212 124.41 62.0212Z" fill="#6DBFFD"/>
<path d="M124.41 64.2395H122.014C121.783 64.2395 121.595 64.4264 121.595 64.6568V64.8409C121.595 65.0714 121.783 65.2582 122.014 65.2582H124.41C124.642 65.2582 124.83 65.0714 124.83 64.8409V64.6568C124.83 64.4264 124.642 64.2395 124.41 64.2395Z" fill="#6DBFFD"/>
<path d="M119.454 67.2753V64.583H118.433V67.2753C118.152 67.3927 117.92 67.6035 117.777 67.8718C117.634 68.1401 117.589 68.4494 117.649 68.7471C117.709 69.0448 117.871 69.3127 118.107 69.5051C118.343 69.6975 118.639 69.8026 118.944 69.8026C119.249 69.8026 119.544 69.6975 119.78 69.5051C120.016 69.3127 120.178 69.0448 120.238 68.7471C120.298 68.4494 120.253 68.1401 120.11 67.8718C119.967 67.6035 119.735 67.3927 119.454 67.2753Z" fill="#52A756"/>
<path d="M119.454 60.984C119.456 60.9161 119.444 60.8484 119.419 60.7851C119.395 60.7218 119.357 60.6641 119.31 60.6154C119.262 60.5666 119.205 60.5279 119.142 60.5015C119.079 60.475 119.012 60.4614 118.944 60.4614C118.875 60.4614 118.808 60.475 118.745 60.5015C118.682 60.5279 118.625 60.5666 118.577 60.6154C118.53 60.6641 118.492 60.7218 118.468 60.7851C118.443 60.8484 118.431 60.9161 118.433 60.984V64.5818H119.454V60.984Z" fill="#8AC6E9"/>
<path d="M69.658 47.5752C70.963 47.5752 72.0209 46.5219 72.0209 45.2225C72.0209 43.9231 70.963 42.8698 69.658 42.8698C68.353 42.8698 67.2951 43.9231 67.2951 45.2225C67.2951 46.5219 68.353 47.5752 69.658 47.5752Z" fill="#FE4775"/>
<path d="M72.3453 42.76L73.2014 41.9076C73.4334 41.6766 73.0742 41.3201 72.8426 41.5504L71.9869 42.4028C71.7553 42.633 72.1133 42.9903 72.3453 42.76Z" fill="#FE4775"/>
<path d="M70.748 41.754C70.8529 41.3659 70.9575 40.9778 71.0616 40.5897C71.1463 40.2752 70.6568 40.1412 70.5721 40.4554L70.2573 41.6185C70.1742 41.9342 70.6637 42.0681 70.748 41.754Z" fill="#FE4775"/>
<path d="M68.37 41.8068C68.4547 42.1206 68.9442 41.9874 68.8595 41.6724C68.7564 41.2843 68.6519 40.8963 68.5459 40.5082C68.4617 40.1944 67.9721 40.3276 68.0568 40.6425L68.37 41.8068Z" fill="#FE4775"/>
<path d="M66.8261 42.9041C67.0581 43.1351 67.4161 42.777 67.1849 42.5468L66.3288 41.6955C66.0968 41.4645 65.7387 41.8222 65.97 42.0524L66.8261 42.9041Z" fill="#FE4775"/>
<path d="M64.8703 44.3135L66.0396 44.6258C66.3555 44.7101 66.49 44.2227 66.1745 44.1384L65.0052 43.8265C64.6893 43.7406 64.5548 44.2281 64.8703 44.3135Z" fill="#FE4775"/>
<path d="M66.0925 46.0174L64.9233 46.3293C64.6081 46.4136 64.7419 46.901 65.0582 46.8167L66.2275 46.5045C66.5426 46.4205 66.4088 45.9331 66.0925 46.0174Z" fill="#FE4775"/>
<path d="M66.9707 47.6849L66.115 48.5373C65.883 48.7683 66.2422 49.1248 66.4734 48.8942L67.3295 48.0422C67.5607 47.812 67.2027 47.4547 66.9707 47.6849Z" fill="#FE4775"/>
<path d="M68.5676 48.691L68.2544 49.8552C68.1697 50.1697 68.6592 50.3037 68.7435 49.9896C68.8484 49.6015 68.953 49.2134 69.0571 48.8253C69.1418 48.51 68.6523 48.3768 68.5676 48.691Z" fill="#FE4775"/>
<path d="M70.946 48.6382C70.8613 48.3244 70.3718 48.4576 70.4565 48.7726C70.5596 49.1606 70.6641 49.5487 70.7701 49.9368C70.8543 50.2506 71.3439 50.1174 71.2592 49.8024L70.946 48.6382Z" fill="#FE4775"/>
<path d="M72.4899 47.541C72.2579 47.31 71.8999 47.6677 72.1311 47.8979L72.9872 48.7503C73.2192 48.9813 73.5773 48.6236 73.3456 48.393L72.4899 47.541Z" fill="#FE4775"/>
<path d="M74.4457 46.1326L73.2764 45.8208C72.9605 45.7365 72.826 46.2239 73.1415 46.3078L74.3108 46.6201C74.6267 46.704 74.7612 46.217 74.4457 46.1326Z" fill="#FE4775"/>
<path d="M73.2234 44.429L74.3927 44.1168C74.7079 44.0329 74.5741 43.5454 74.2578 43.6298L73.0885 43.9416C72.7734 44.0244 72.9072 44.5118 73.2234 44.429Z" fill="#FE4775"/>
<path d="M164.96 102.32C160.798 112.95 151.342 120.503 141.979 126.575H143.071C149.734 122.286 155.95 117.149 160.811 110.882C162.757 108.327 164.433 105.537 165.509 102.504C165.319 102.466 165.135 102.404 164.96 102.32Z" fill="#69A31A"/>
<path d="M153.679 120.94C149.227 120.55 148.757 125.139 153.197 125.651C157.649 126.041 158.118 121.452 153.679 120.94Z" fill="#69A31A"/>
<path d="M158.142 116.133C154.48 116.158 154.439 120.778 158.1 120.868C161.763 120.842 161.803 116.223 158.142 116.133Z" fill="#69A31A"/>
<path d="M166.178 112.035C165.335 111.123 163.899 110.906 162.698 111.087C161.145 111.27 159.991 112.649 161.515 113.811C162.377 114.461 163.705 114.653 164.77 114.41C165.905 114.204 167.191 113.126 166.178 112.035Z" fill="#69A31A"/>
<path d="M169.452 106.51C168.939 104.858 166.877 104.375 165.396 105.008C163.244 105.863 163.894 107.905 165.774 108.548C167.12 109.005 169.799 108.318 169.452 106.51Z" fill="#69A31A"/>
<path d="M165.509 102.504C167.133 102.876 168.522 101.152 168.177 99.6165C167.881 97.884 165.809 97.303 164.465 98.2828C162.649 99.4525 163.554 102.119 165.509 102.504Z" fill="#69A31A"/>
<path d="M162.311 105.875C164.564 104.412 161.552 99.8028 159.295 101.262C157.037 102.721 160.055 107.336 162.311 105.875Z" fill="#69A31A"/>
<path d="M155.797 109.477C155.976 110.365 156.609 111.29 157.406 111.73C158.395 112.344 159.63 111.958 159.711 110.711C159.816 109.265 158.812 107.673 157.372 107.305C156.095 107.004 155.515 108.428 155.797 109.477Z" fill="#69A31A"/>
<path d="M152.428 115.447C153.045 116.906 154.748 117.455 155.388 115.727C155.945 114.294 155.377 111.471 153.553 111.362C152.727 111.384 152.18 112.378 152.088 113.21C151.982 113.911 152.118 114.807 152.428 115.447Z" fill="#69A31A"/>
<path d="M150.251 120.684C150.924 119.784 150.981 118.451 150.676 117.392C150.322 115.96 148.831 114.951 147.841 116.506C147.277 117.395 147.228 118.716 147.582 119.707C147.951 120.943 149.333 121.9 150.251 120.684Z" fill="#69A31A"/>
<path d="M191.596 109.84C191.45 109.79 191.312 109.722 191.183 109.638C187.046 117.071 179.536 121.881 172.004 125.577H173.094C178.163 123.044 182.965 119.908 187.004 115.938C188.809 114.133 190.425 112.114 191.596 109.84Z" fill="#69A31A"/>
<path d="M180.317 123.101C176.854 122.323 175.995 125.886 179.435 126.759C182.898 127.537 183.757 123.974 180.317 123.101Z" fill="#69A31A"/>
<path d="M184.343 119.789C181.458 119.422 180.933 123.054 183.805 123.512C186.69 123.879 187.215 120.247 184.343 119.789Z" fill="#69A31A"/>
<path d="M191.106 117.413C190.54 116.605 189.432 116.283 188.468 116.299C187.226 116.278 186.171 117.243 187.246 118.318C187.855 118.921 188.88 119.212 189.745 119.134C190.659 119.092 191.787 118.38 191.106 117.413Z" fill="#69A31A"/>
<path d="M194.272 113.412C194.045 112.057 192.473 111.459 191.24 111.802C189.454 112.247 189.748 113.923 191.159 114.628C192.17 115.129 194.352 114.871 194.272 113.412Z" fill="#69A31A"/>
<path d="M191.596 109.841C192.833 110.305 194.112 109.096 194.003 107.851C193.956 106.455 192.387 105.779 191.224 106.408C189.671 107.137 190.098 109.331 191.596 109.841Z" fill="#69A31A"/>
<path d="M188.718 112.158C190.648 111.245 188.769 107.298 186.838 108.208C184.907 109.117 186.787 113.068 188.718 112.158Z" fill="#69A31A"/>
<path d="M183.207 114.303C183.254 115.02 183.652 115.815 184.234 116.246C184.947 116.834 185.96 116.661 186.156 115.688C186.393 114.56 185.773 113.202 184.679 112.76C183.705 112.387 183.097 113.446 183.207 114.303Z" fill="#69A31A"/>
<path d="M179.919 118.645C180.248 119.859 181.531 120.472 182.219 119.179C182.81 118.11 182.664 115.83 181.24 115.549C180.587 115.478 180.051 116.203 179.89 116.847C179.731 117.389 179.742 118.108 179.919 118.645Z" fill="#69A31A"/>
<path d="M177.646 122.537C178.272 121.9 178.458 120.857 178.333 119.991C178.206 118.826 177.141 117.873 176.195 118.994C175.657 119.634 175.477 120.668 175.65 121.486C175.808 122.497 176.794 123.397 177.646 122.537Z" fill="#69A31A"/>
<path d="M133.975 126.843C133.975 126.843 126.367 123.217 127.194 113.421C133.809 112.433 141.979 126.577 141.979 126.577L133.975 126.843Z" fill="#588A16"/>
<path d="M139.76 126.65C139.76 126.65 127.283 110.923 134.185 98.6682C137.2 106.009 147.359 126.396 147.359 126.396L139.76 126.65Z" fill="#69A31A"/>
<path d="M143.209 125.125C142.247 123.922 141.359 122.663 140.548 121.355C140.091 120.618 139.637 119.83 139.197 118.996C138.976 118.58 138.763 118.149 138.55 117.714C138.446 117.494 138.34 117.273 138.237 117.049C138.134 116.825 138.031 116.599 137.933 116.37C137.731 115.913 137.547 115.456 137.365 115.005C137.189 114.551 137.017 114.103 136.862 113.657C136.546 112.772 136.276 111.901 136.04 111.067C135.623 109.586 135.291 108.083 135.046 106.565C134.836 105.266 134.734 104.203 134.684 103.466C134.634 102.73 134.636 102.32 134.636 102.32C134.636 102.32 134.587 102.727 134.568 103.469C134.544 104.517 134.58 105.566 134.676 106.611C134.817 108.164 135.069 109.706 135.432 111.223C135.638 112.08 135.885 112.974 136.188 113.886C136.336 114.343 136.504 114.802 136.678 115.267C136.853 115.731 137.044 116.198 137.251 116.664C137.351 116.898 137.458 117.128 137.563 117.357C137.667 117.586 137.779 117.81 137.887 118.033C138.11 118.477 138.335 118.912 138.57 119.331C139.036 120.172 139.525 120.961 140.02 121.693C140.895 122.987 141.866 124.214 142.926 125.364C143.326 125.799 143.704 126.185 144.05 126.524H144.381C144.028 126.121 143.633 125.654 143.209 125.125Z" fill="#BCD845"/>
<path d="M136.148 125.064C135.22 124.263 134.345 123.404 133.529 122.49L133.366 122.31L133.209 122.126L132.897 121.763C132.796 121.64 132.697 121.518 132.599 121.397C132.549 121.336 132.5 121.276 132.451 121.216C132.402 121.156 132.356 121.094 132.309 121.034L132.029 120.673C131.938 120.552 131.851 120.431 131.763 120.312L131.631 120.135C131.588 120.076 131.547 120.016 131.505 119.957L131.258 119.606C130.941 119.138 130.644 118.689 130.384 118.256C130.25 118.043 130.131 117.83 130.011 117.628C129.953 117.527 129.898 117.426 129.842 117.328C129.787 117.23 129.733 117.135 129.683 117.039C129.633 116.943 129.582 116.852 129.534 116.762L129.396 116.496C129.306 116.324 129.228 116.159 129.151 116.005C129.003 115.697 128.878 115.428 128.782 115.207C128.687 114.985 128.615 114.811 128.568 114.692C128.521 114.573 128.498 114.51 128.498 114.51C128.498 114.51 128.509 114.576 128.537 114.702C128.564 114.828 128.608 115.01 128.673 115.246C128.738 115.482 128.823 115.766 128.932 116.095C128.99 116.258 129.048 116.435 129.119 116.618L129.226 116.902L129.346 117.199C129.385 117.3 129.431 117.403 129.476 117.507C129.522 117.611 129.568 117.719 129.617 117.828C129.719 118.044 129.82 118.271 129.938 118.5C130.164 118.962 130.433 119.444 130.729 119.943L130.961 120.318C131 120.381 131.039 120.445 131.082 120.507C131.124 120.57 131.165 120.633 131.207 120.696C131.292 120.822 131.376 120.951 131.465 121.078L131.739 121.46C131.786 121.524 131.832 121.589 131.88 121.653L132.027 121.843L132.326 122.228L132.643 122.607L132.804 122.799L132.972 122.986C134.288 124.461 135.82 125.728 137.517 126.747H138.312C137.657 126.282 136.916 125.726 136.148 125.064Z" fill="#C4DD5D"/>
<path d="M148.474 126.486C148.474 126.486 154.239 115.224 166.17 117.723C164.792 123.656 159.166 126 159.166 126L148.474 126.486Z" fill="#588A16"/>
<path d="M163.403 119.82L163.059 119.87L162.862 119.9C162.827 119.905 162.792 119.91 162.757 119.916L162.65 119.938L162.182 120.034C162.141 120.042 162.099 120.052 162.057 120.063L161.929 120.096L161.663 120.164C160.814 120.396 159.983 120.693 159.18 121.052C158.197 121.49 157.248 122 156.34 122.576C155.433 123.149 154.561 123.774 153.728 124.448C152.96 125.067 152.298 125.659 151.761 126.174C151.7 126.232 151.64 126.29 151.582 126.346H152.151C152.713 125.931 153.373 125.456 154.106 124.947C154.904 124.391 155.791 123.798 156.737 123.202C157.683 122.606 158.601 122.069 159.456 121.615C160.212 121.209 160.988 120.842 161.781 120.515L162.031 120.416L162.151 120.368C162.19 120.351 162.229 120.336 162.269 120.323L162.71 120.165L162.812 120.126C162.845 120.115 162.878 120.105 162.911 120.095L163.098 120.036L163.427 119.931C163.826 119.824 164.049 119.762 164.049 119.762C164.049 119.762 163.82 119.78 163.403 119.82Z" fill="#C4DD5D"/>
<path d="M170.472 125.675C170.472 125.675 166.433 116.358 173.502 112.293C177.55 120.77 174.493 125.61 174.493 125.61L170.472 125.675Z" fill="#588A16"/>
<path d="M172.408 121.56C172.408 121.439 172.408 121.318 172.41 121.198C172.413 121.078 172.416 120.958 172.419 120.84C172.419 120.781 172.421 120.722 172.424 120.663C172.426 120.605 172.429 120.546 172.431 120.487C172.436 120.371 172.44 120.255 172.444 120.141C172.471 119.682 172.496 119.239 172.535 118.817C172.606 117.972 172.704 117.212 172.797 116.574C172.987 115.297 173.171 114.51 173.171 114.51C173.171 114.51 173.082 114.691 172.944 115.03C172.806 115.369 172.621 115.866 172.434 116.493C172.214 117.23 172.039 117.979 171.912 118.737C171.837 119.166 171.781 119.619 171.734 120.09C171.725 120.209 171.716 120.328 171.706 120.448C171.702 120.508 171.697 120.568 171.693 120.629C171.689 120.69 171.687 120.751 171.684 120.811C171.679 120.934 171.674 121.057 171.668 121.181C171.665 121.305 171.665 121.431 171.664 121.556C171.659 121.808 171.669 122.057 171.676 122.302C171.678 122.425 171.689 122.546 171.696 122.666C171.703 122.787 171.713 122.906 171.721 123.025C171.729 123.143 171.746 123.26 171.76 123.376C171.774 123.493 171.782 123.607 171.801 123.72C171.82 123.833 171.834 123.945 171.851 124.055C171.859 124.111 171.867 124.166 171.876 124.22C171.884 124.274 171.895 124.329 171.905 124.382C171.926 124.49 171.946 124.595 171.967 124.7C171.977 124.752 171.987 124.804 171.997 124.854C172.007 124.904 172.021 124.956 172.032 125.008C172.056 125.108 172.08 125.207 172.103 125.305C172.127 125.403 172.149 125.498 172.177 125.591C172.185 125.618 172.192 125.644 172.2 125.668H172.702C172.49 124.309 172.391 122.935 172.408 121.56Z" fill="#C4DD5D"/>
<path d="M74.8877 100.465C74.7616 99.1275 73.897 97.7877 72.6651 97.2549C73.5606 98.6386 74.3181 100.28 74.7226 101.889C74.8764 101.486 74.9325 100.915 74.8877 100.465Z" fill="#EA716E"/>
<path d="M78.1333 111.371C78.0525 110.112 77.2927 108.763 76.1869 108.163C76.8767 109.582 77.5321 111.207 77.959 112.735C78.1067 112.346 78.1658 111.81 78.1333 111.371Z" fill="#EA716E"/>
<path d="M71.2078 90.2909C71.0226 89.2287 70.1951 88.2185 69.1867 87.8512C69.9436 89.0894 70.6029 90.3842 71.1587 91.7239C71.2839 91.2973 71.299 90.7495 71.2078 90.2909Z" fill="#EA716E"/>
<path d="M80.6625 118.046C80.4584 117.59 80.1552 117.301 79.7662 117.147C79.7542 117.978 80.0736 118.697 80.6119 119.32C80.8156 118.942 80.8365 118.517 80.6625 118.046Z" fill="#EA716E"/>
</svg>
