<svg width="220" height="147" viewBox="0 0 220 147" fill="none" xmlns="http://www.w3.org/2000/svg">
<path d="M202.411 68.7683H10.4995C5.33205 65.388 4.26982 56.8282 7.04108 49.2166C10.7829 38.94 21.5123 30.3904 38.5612 38.6467C38.5763 38.654 38.5917 38.661 38.6067 38.6687C34.782 30.382 46.6106 19.3875 60.1802 19.8055C66.2211 19.9918 72.6073 22.4396 78.1102 28.3958C92.8561 1.85973 136.449 12.7365 149.652 30.2383C157.387 25.7723 167.839 24.8849 176.676 28.2084C185.058 31.3617 191.981 38.3049 193.738 49.5803C193.786 49.8846 193.829 50.1923 193.869 50.5032C197.7 54.336 200.757 61.0841 202.411 68.7683Z" fill="#A0D5FD"/>
<path d="M193.737 49.5806C187.924 53.0163 182.38 59.9687 182.38 59.9687C182.38 59.9687 181.528 55.4246 176.557 54.3587C171.587 53.2928 170.452 58.9625 170.452 58.9625C170.452 58.9625 165.623 50.5967 159.243 51.6692C152.863 52.7417 149.296 57.4123 149.296 57.4123C149.296 57.4123 147.166 50.4548 140.423 49.8157C133.679 49.1766 131.293 53.8629 131.293 53.8629C132.818 42.5784 151.672 43.2424 156.539 46.0529C156.539 43.4973 159.024 41.0124 163.213 44.349C163.213 39.949 165.858 34.1773 172.3 40.6193C172.3 35.3954 174.186 31.317 176.676 28.2091C185.057 31.3613 191.98 38.3053 193.737 49.5806Z" fill="#6FC0FD"/>
<path d="M135.698 69.1985C135.698 69.1985 147.626 66.11 157.531 65.5776C167.435 65.0452 171.695 65.4709 174.783 65.4709C177.872 65.4709 199.704 59.1877 199.704 59.1877C199.704 59.1877 203.219 69.6245 202.154 69.6245C201.089 69.6245 135.698 69.1985 135.698 69.1985Z" fill="#608010"/>
<path d="M164.702 57.2704C163.948 57.2704 163.805 58.652 163.805 58.652C163.805 58.652 161.433 65.5086 163.093 66.4653C163.588 66.7473 164.136 66.9222 164.702 66.9786V69.1419H165.103L164.961 66.9948C166.026 67.0314 166.901 66.6244 166.901 65.9857C166.901 64.9883 165.457 57.2704 164.702 57.2704Z" fill="#9BC231"/>
<path d="M175.674 53.944C174.708 53.944 174.525 55.7128 174.525 55.7128C174.525 55.7128 171.488 64.4875 173.614 65.7147C174.245 66.0759 174.945 66.3007 175.668 66.3747C175.71 67.3508 175.793 68.9337 175.898 68.9337H176.127L176.01 66.3982C177.372 66.4455 178.49 65.9237 178.49 65.1068C178.489 63.8242 176.64 53.944 175.674 53.944Z" fill="#779918"/>
<path d="M189.403 64.5975C189.403 65.4137 188.287 65.9351 186.927 65.8893C186.871 65.8871 186.815 65.8845 186.758 65.8805L186.764 65.9905L186.775 66.1852L186.926 68.9887L186.621 68.9484C186.418 68.9209 186.44 67.2727 186.477 66.1676C186.477 66.1426 186.477 66.1188 186.48 66.0942C186.483 66.0106 186.486 65.9307 186.489 65.8555C185.798 65.7731 185.131 65.5528 184.528 65.2076C182.401 63.98 185.438 55.2057 185.438 55.2057C185.438 55.2057 185.576 53.8773 186.241 53.5231C186.348 53.466 186.467 53.4364 186.588 53.4369C187.554 53.4365 189.403 63.3164 189.403 64.5975Z" fill="#9BC231"/>
<path d="M10.4995 68.7687C10.3327 69.8361 10.2502 70.915 10.2527 71.9953C-0.186629 82.4347 9.14504 108.241 26.8334 106.692C29.0814 116.583 38.2415 122.688 48.6501 118.502C59.4576 132.836 89.1524 135.051 110.393 125.729C132.15 143.844 183.987 132.676 192.611 108.935C203.662 101.049 205.527 83.2447 202.41 68.765L10.4995 68.7687Z" fill="#93C74B"/>
<path d="M89.888 68.7684H10.4995C8.95219 67.7568 7.77299 66.2802 6.95496 64.5037C5.03949 60.3475 5.09926 54.5494 7.04113 49.2166C14.5417 48.8613 31.8953 49.6933 40.1757 63.7843C40.2204 63.8609 40.2655 63.9379 40.3103 64.0156C40.4384 63.9423 40.566 63.869 40.6931 63.7957C52.7197 57.0296 62.6513 59.8272 65.4174 66.7825C72.46 59.7421 89.888 68.7684 89.888 68.7684Z" fill="#6ABEFD"/>
<path d="M17.5436 47.1281C16.577 47.1281 16.3941 48.8969 16.3941 48.8969C16.3941 48.8969 13.3581 57.6715 15.484 58.8988C16.1166 59.2608 16.8183 59.4857 17.5436 59.5588V62.3304H18.0569L17.8758 59.5804C19.239 59.6288 20.3592 59.1063 20.3592 58.289C20.3585 57.0082 18.5097 47.1281 17.5436 47.1281Z" fill="#9BC231"/>
<path d="M49.2609 57.4127C48.5694 57.4127 48.4385 58.6784 48.4385 58.6784C48.4385 58.6784 46.2653 64.9594 47.7869 65.8376C48.2397 66.0965 48.7419 66.2573 49.2609 66.3095V68.2932H49.6276L49.4978 66.3257C50.4739 66.3605 51.2758 65.9865 51.2758 65.4013C51.2761 64.4846 49.9528 57.4127 49.2609 57.4127Z" fill="#9BC231"/>
<path d="M27.405 54.0045C26.8363 54.0045 26.7285 55.0455 26.7285 55.0455C26.7285 55.0455 24.9414 60.21 26.1928 60.9323C26.5639 61.1446 26.9753 61.2767 27.4006 61.3199C27.4248 61.8941 27.474 62.8258 27.5363 62.8258H27.6709L27.6019 61.3334C28.4035 61.3617 29.0616 61.0541 29.0616 60.5734C29.0616 59.8195 27.9737 54.0045 27.405 54.0045Z" fill="#779918"/>
<path d="M35.5568 60.7967C35.5568 61.501 34.5935 61.9509 33.4202 61.9117C33.3722 61.9117 33.3234 61.9077 33.2735 61.9044L33.2787 61.9979L33.2875 62.1662L33.418 64.5862L33.1544 64.5495C32.9798 64.5257 32.9985 63.103 33.0308 62.1497C33.0308 62.128 33.0308 62.1075 33.0308 62.0866C33.0334 62.0133 33.0363 61.9458 33.0389 61.8809C32.4443 61.8097 31.8701 61.62 31.35 61.3232C29.5167 60.2639 32.1354 52.69 32.1354 52.69C32.1354 52.69 32.2538 51.5435 32.8284 51.238C32.9203 51.189 33.0231 51.1638 33.1272 51.1647C33.9614 51.1647 35.5568 59.6934 35.5568 60.7967Z" fill="#9BC231"/>
<path d="M62.4349 68.7684H10.4995C8.95219 67.7567 7.77299 66.2802 6.95496 64.5037C11.385 63.1356 20.1326 61.0174 28.1696 62.5237C32.5443 63.3439 35.9169 63.8803 38.5781 66.2325C41.4821 69.021 52.9834 68.2756 62.4349 68.7684Z" fill="#608010"/>
<path d="M87.3829 64.6547C87.3829 58.5482 81.1353 55.8507 76.3074 57.4123C76.3074 51.1647 66.0832 49.8865 62.6751 54.4306C60.2613 48.3248 54.4394 48.6086 45.4931 51.1647C44.594 45.8726 41.7615 41.7439 38.5631 38.647C38.5781 38.6544 38.5935 38.6613 38.6085 38.669C34.7838 30.3824 46.6125 19.3879 60.1821 19.8059C61.4585 21.8251 62.2431 24.8846 60.5326 29.1797C66.6244 29.1797 72.0489 35.8288 69.6351 43.9226C72.8387 42.0732 82.8406 43.9226 81.5628 52.5844C88.5188 53.5784 89.7435 60.8205 87.3829 64.6547Z" fill="#D7EDFD"/>
<path d="M144.36 15.5584C144.36 16.1975 150.005 26.315 158.312 22.8005C166.618 19.286 144.36 5.12163 144.36 15.5584Z" fill="#7FC7FD"/>
<path d="M166.991 23.0953C168.491 23.0953 169.707 21.8793 169.707 20.3794C169.707 18.8794 168.491 17.6635 166.991 17.6635C165.491 17.6635 164.276 18.8794 164.276 20.3794C164.276 21.8793 165.491 23.0953 166.991 23.0953Z" fill="#7FC7FD"/>
<path d="M194.468 43.2484C194.468 43.2484 193.295 46.7093 197.024 50.435C200.753 54.1607 204.656 49.8484 202.411 46.3881C200.166 42.9279 195.001 39.4677 194.468 43.2484Z" fill="#7FC7FD"/>
<path d="M207.017 49.5315C208.155 49.5315 209.076 48.6097 209.076 47.4726C209.076 46.3356 208.155 45.4138 207.017 45.4138C205.88 45.4138 204.959 46.3356 204.959 47.4726C204.959 48.6097 205.88 49.5315 207.017 49.5315Z" fill="#7FC7FD"/>
<path d="M24.442 23.76C24.442 23.76 26.359 34.3035 33.814 28.7653C41.2691 23.2272 38.8194 15.9855 32.8556 17.2634C26.8917 18.5412 24.442 18.6468 24.442 23.76Z" fill="#D2EBFD"/>
<path d="M44.3718 17.1141C45.2426 17.1141 45.9485 16.4083 45.9485 15.5375C45.9485 14.6667 45.2426 13.9608 44.3718 13.9608C43.5011 13.9608 42.7952 14.6667 42.7952 15.5375C42.7952 16.4083 43.5011 17.1141 44.3718 17.1141Z" fill="#D2EBFD"/>
<path d="M187.22 117.524L19.1166 68.7687H12.6456L183.487 121.021C184.811 119.944 186.059 118.775 187.22 117.524Z" fill="#BCD845"/>
<path d="M165.701 130.498L9.6679 72.623C9.26181 73.086 8.88768 73.576 8.5481 74.0897L150.73 134.007C155.86 133.316 160.934 132.127 165.701 130.498Z" fill="#BCD845"/>
<path d="M7.50381 75.9579C6.86141 77.3336 6.41738 78.823 6.15778 80.3791L79.31 131.267C87.7532 131.664 96.6881 130.518 104.82 127.857L7.50381 75.9579Z" fill="#BCD845"/>
<path d="M195.771 106.167C196.764 105.1 197.658 103.945 198.44 102.714C158.29 94.3715 61.2524 74.4608 33.4983 68.7687H28.7485L195.771 106.167Z" fill="#BCD845"/>
<path d="M135.481 68.7687L203.119 72.6843C203.036 72.1258 202.947 71.5705 202.85 71.0185L144.361 68.7687H135.481Z" fill="#BCD845"/>
<path d="M202.429 93.0966C202.857 91.3455 203.178 89.57 203.39 87.78L62.4349 68.7687H53.3309L202.429 93.0966Z" fill="#BCD845"/>
<path d="M203.757 80.3689C203.727 78.7589 203.631 77.1481 203.473 75.5516L105.889 68.7683H80.3099L203.757 80.3689Z" fill="#BCD845"/>
<path d="M20.3867 68.728C20.3867 68.728 87.703 87.1258 89.7267 87.978C91.7503 88.8301 128.386 97.8824 131.155 99.2669C133.924 100.651 153.945 105.55 155.648 105.55C157.351 105.55 161.293 107.361 163.422 108.96C165.55 110.559 175.668 112.155 177.16 112.155C178.651 112.155 180.142 113.113 180.887 114.072C181.633 115.03 188.236 114.178 188.555 115.243C188.874 116.308 187.22 117.524 187.22 117.524L20.3595 69.0565C20.2708 68.959 20.3867 68.728 20.3867 68.728ZM7.50385 75.9579L102.684 128.59C102.684 128.59 104.6 128.306 106.02 127.49C106.233 126.106 7.79241 75.5186 7.79241 75.5186L7.50385 75.9579ZM9.66718 72.6231L165.721 130.471C165.721 130.471 170.666 129.408 170.561 128.66C170.455 127.913 9.97591 72.3224 9.97591 72.3224L9.66718 72.6231ZM34.9136 69.1276L83.4064 79.0672C83.4064 79.0672 163.068 95.6101 163.068 95.3971C163.068 95.1841 161.151 94.3338 160.015 94.1193C158.879 93.9048 145.673 90.7826 143.046 90.4273C140.419 90.072 116.137 85.4575 114.646 84.7473C113.155 84.037 89.0865 79.2803 86.8854 78.9253C84.6843 78.5704 35.5887 68.7016 35.5887 68.7016L34.452 68.5773L34.9136 69.1276ZM55.6457 69.234L144.253 83.3983C144.253 83.3983 132.609 80.9845 131.047 80.5585C129.485 80.1324 90.2935 74.1686 89.1572 73.7425C88.0209 73.3164 55.0539 68.7016 55.0539 68.7016L53.4684 68.7723L55.6457 69.234Z" fill="#19767B"/>
<path d="M90.97 56.0266H88.4851L90.3324 49.2147C90.4544 48.7651 90.721 48.3681 91.091 48.0851C91.461 47.8021 91.914 47.6487 92.3798 47.6487H94.9832L90.97 56.0266Z" fill="#6B1E31"/>
<path d="M19.0105 66.2163L13.9696 74.7365L24.6763 75.0295L19.0105 66.2163Z" fill="#D2EBFD"/>
<path d="M34.4205 67.0535L29.9446 74.6185L39.4508 74.8789L34.4205 67.0535Z" fill="#D2EBFD"/>
<path d="M51.6813 67.0985L47.8375 73.5947L56.0014 73.8184L51.6813 67.0985Z" fill="#D2EBFD"/>
<path d="M67.4451 67.0229L63.9185 72.9831L71.4084 73.1881L67.4451 67.0229Z" fill="#D2EBFD"/>
<path d="M117.096 66.6842L113.182 73.2996L121.495 73.5273L117.096 66.6842Z" fill="#D2EBFD"/>
<path d="M129.061 67.334L125.586 73.208L132.967 73.41L129.061 67.334Z" fill="#D2EBFD"/>
<path d="M142.463 67.3691L139.479 72.4134L145.817 72.5868L142.463 67.3691Z" fill="#D2EBFD"/>
<path d="M154.703 67.3104L151.965 71.9381L157.78 72.0976L154.703 67.3104Z" fill="#D2EBFD"/>
<path d="M81.4576 67.0229L78.4788 72.0573L84.8049 72.2303L81.4576 67.0229Z" fill="#D2EBFD"/>
<path d="M149.217 66.1738V63.9221L124.304 58.6809L124.16 59.3633L126.881 59.9353L126.701 65.9714L84.5647 65.5926L84.7997 58.5225L93.9503 57.5938L93.8799 56.9004L36.3304 62.7407L35.006 65.1471L17.0936 64.9861V66.9031L159.27 67.8615V66.264L149.217 66.1738ZM36.7646 63.3966L52.1033 61.8405V65.3007L35.7969 65.1541L36.7646 63.3966ZM52.8 65.3033V61.769L68.5747 60.17V65.45L52.455 65.3033H52.8ZM69.2703 60.0966L76.5963 59.353V65.5189L69.2703 65.4533V60.0966ZM77.2933 59.2841L84.0998 58.5933L83.8673 65.586L77.2933 65.5273V59.2841ZM127.572 60.0812L130.414 60.6789V66.0047L127.397 65.9776L127.572 60.0812ZM131.111 60.8256L134.532 61.5453V66.0418L131.111 66.011V60.8256ZM135.229 61.692L144.607 63.665V66.1323L135.229 66.048V61.692ZM145.305 63.8117L148.519 64.4878V66.1675L145.305 66.1386V63.8117Z" fill="#0B3336"/>
<path d="M125.315 64.0236C125.315 69.7249 123.775 74.3464 121.873 74.3464C119.971 74.3464 118.431 69.7264 118.431 64.0236C118.431 59.423 117.045 55.1521 118.431 53.8189C118.761 53.4999 121.506 53.7012 121.873 53.7012C123.774 53.7012 125.315 58.3227 125.315 64.0236Z" fill="#0B3336"/>
<path d="M121.737 64.3056C121.737 68.6492 123.191 72.8303 122.005 74.4223C121.609 74.9529 118.888 74.7919 118.431 74.7919C116.605 74.7919 115.126 70.0986 115.126 64.3053C115.126 58.5119 116.605 53.8186 118.431 53.8186C120.257 53.8186 121.737 58.5138 121.737 64.3056Z" fill="#0B3336"/>
<path d="M118.448 71.3115C119.474 71.3115 120.306 68.3746 120.306 64.7518C120.306 61.129 119.474 58.1921 118.448 58.1921C117.423 58.1921 116.591 61.129 116.591 64.7518C116.591 68.3746 117.423 71.3115 118.448 71.3115Z" fill="#A8908E"/>
<path d="M118.448 68.8856C119.095 68.8856 119.619 67.0349 119.619 64.7518C119.619 62.4688 119.095 60.618 118.448 60.618C117.802 60.618 117.278 62.4688 117.278 64.7518C117.278 67.0349 117.802 68.8856 118.448 68.8856Z" fill="#E3D4D3"/>
<path d="M128.857 77.4873C130.613 77.4873 132.037 74.0369 132.037 69.7807C132.037 65.5245 130.613 62.0741 128.857 62.0741C127.1 62.0741 125.676 65.5245 125.676 69.7807C125.676 74.0369 127.1 77.4873 128.857 77.4873Z" fill="#0B3336"/>
<path d="M135.481 69.4533C135.481 73.7092 133.998 77.1595 132.169 77.1595C131.773 77.1595 129.455 77.7612 129.103 77.4642C127.83 76.3906 128.857 72.7874 128.857 69.4533C128.857 65.97 127.494 63.0304 128.857 62.0741C129.16 61.8615 131.836 61.7467 132.169 61.7467C133.998 61.7467 135.481 65.197 135.481 69.4533Z" fill="#0B3336"/>
<path d="M128.873 74.9291C129.86 74.9291 130.66 72.7709 130.66 70.1085C130.66 67.4462 129.86 65.288 128.873 65.288C127.886 65.288 127.086 67.4462 127.086 70.1085C127.086 72.7709 127.886 74.9291 128.873 74.9291Z" fill="#A8908E"/>
<path d="M114.01 72.3118L129.187 71.3001C129.187 71.3001 129.637 70.9481 129.187 70.4971C128.736 70.0461 113.38 71.4046 113.38 71.4046L114.01 72.3118Z" fill="#594D4C"/>
<path d="M115.605 64.7199C115.605 64.7199 116.045 66.4154 116.341 68.3536C116.577 69.9134 116.719 71.6305 116.457 72.7466H127.087V67.7944L125.96 66.6673L125.3 63.9606L115.605 64.7199Z" fill="#6B1E31"/>
<path d="M113.593 64.2268L114.5 68.8061C114.5 68.8061 117.627 69.7807 117.894 69.7807C118.16 69.7807 117.628 64.5612 117.628 64.5612L113.593 64.2268Z" fill="#6B1E31"/>
<path d="M117.895 53.0581L117.256 64.7199L126.468 64.2939L124.871 53.0581H117.895Z" fill="#FE4775"/>
<path d="M103.624 52.419L105.508 64.72H115.606V55.1089L108.411 52.2456L103.624 52.419Z" fill="#6B1E31"/>
<path d="M99.9317 69.0727H107.606V62.4951L97.4069 61.2627L99.9317 69.0727Z" fill="#061D1F"/>
<path d="M121.445 50.7548L123.593 52.2456L125.299 63.286C125.299 63.286 123.418 64.3156 123.418 63.9606C123.418 63.6057 121.445 50.7548 121.445 50.7548Z" fill="#FE4775"/>
<path d="M91.8562 51.7803L96.5954 37.3674C96.5954 37.3674 96.9679 36.1603 98.3169 35.8527C99.6658 35.545 106.624 34.1 106.624 34.1C106.624 34.1 109.073 33.7803 111.381 34.1C113.688 34.4197 120.291 34.3127 120.753 37.0817C121.215 39.8508 121.862 52.5067 121.862 52.5067L104.246 53.0567L106.455 65.7657L95.6189 63.6002L91.8562 51.7803Z" fill="#FE4775"/>
<path d="M120.434 50.7858L115.147 50.9134L108.411 51.0762L104.246 51.1767L104.295 48.4718V48.4714L104.34 45.9583V45.9579L104.494 37.3673H119.226L119.795 43.682L120.434 50.7858Z" fill="#235D8A"/>
<path d="M110.918 37.3673L104.295 48.4714L104.34 45.9583V45.9579L108.844 37.3673H110.918Z" fill="#70ACDB"/>
<path d="M119.795 43.682L115.147 50.9134L108.411 51.0762L117.288 37.3673H119.226L119.795 43.682Z" fill="#70ACDB"/>
<path d="M103.109 37.3673L103.059 38.878L102.97 41.6067L102.648 51.3894L99.1855 51.3116L97.9506 51.2838L95.3993 51.2266L94.1501 51.1987L93.1696 51.1767L97.3815 38.2088L99.6358 37.8777L100.663 37.7266L103.109 37.3673Z" fill="#235D8A"/>
<path d="M122.097 42.5894C122.097 42.5894 122.161 45.6019 122.292 45.6782C122.424 45.7545 123.251 45.6782 123.251 45.6782C123.251 45.6782 123.136 42.4475 123.012 42.4475C122.887 42.4475 122.097 42.5894 122.097 42.5894Z" fill="#0B3336"/>
<path d="M111.446 46.3466V36.1958C111.446 36.1958 112.139 35.8585 112.245 36.1958C112.351 36.5332 112.339 46.3452 112.339 46.3452C112.339 46.3452 111.674 46.6895 111.446 46.3466Z" fill="#0B3336"/>
<path d="M91.0279 53.3896L89.0399 62.9035L92.5895 63.0927C92.5895 63.0927 97.049 54.4071 97.049 54.2652C97.049 54.1233 96.1162 52.7505 96.1162 52.7505L91.0279 53.3896Z" fill="#451320"/>
<path d="M102.153 65.5365C102.153 72.0137 100.403 77.2644 98.2432 77.2644C96.0835 77.2644 94.3327 72.0137 94.3327 65.5365C94.3327 60.3097 92.756 55.4572 94.3327 53.9422C94.7093 53.5799 97.8263 53.8087 98.2432 53.8087C100.402 53.8087 102.153 59.0594 102.153 65.5365Z" fill="#0B3336"/>
<path d="M98.0873 65.8566C98.0873 70.7916 99.7395 75.5417 98.3917 77.3505C97.9421 77.9533 94.8504 77.7707 94.3319 77.7707C92.2577 77.7707 90.5762 72.4364 90.5762 65.8566C90.5762 59.2768 92.2577 53.9421 94.3319 53.9421C96.4062 53.9421 98.0873 59.2764 98.0873 65.8566Z" fill="#0B3336"/>
<path d="M94.3514 73.8159C95.5168 73.8159 96.4615 70.4793 96.4615 66.3634C96.4615 62.2475 95.5168 58.9109 94.3514 58.9109C93.186 58.9109 92.2412 62.2475 92.2412 66.3634C92.2412 70.4793 93.186 73.8159 94.3514 73.8159Z" fill="#A8908E"/>
<path d="M94.3514 71.0596C95.0857 71.0596 95.6809 68.9571 95.6809 66.3634C95.6809 63.7697 95.0857 61.6671 94.3514 61.6671C93.6171 61.6671 93.0219 63.7697 93.0219 66.3634C93.0219 68.9571 93.6171 71.0596 94.3514 71.0596Z" fill="#E3D4D3"/>
<path d="M95.2879 53.2947L97.5598 57.5784L101.701 57.4365L99.2875 52.4191H91.3591L91.0276 53.3896L95.2879 53.2947Z" fill="#FEAAC0"/>
<path d="M119.329 54.0283L119.625 59.7791L119.072 59.8484L118.994 53.9458L119.329 54.0283Z" fill="#023240"/>
<path d="M119.97 53.9458L120.187 59.818L120.733 59.7494L120.304 54.0279L119.97 53.9458Z" fill="#023240"/>
<path d="M120.937 53.9458L121.291 59.7875L121.829 59.7197L121.271 54.0276L120.937 53.9458Z" fill="#023240"/>
<path d="M121.896 53.9458L122.383 59.7578L122.915 59.6904L122.228 54.0272L121.896 53.9458Z" fill="#023240"/>
<path d="M122.846 53.9458L123.464 59.7281L123.99 59.661L123.178 54.0268L122.846 53.9458Z" fill="#023240"/>
<path d="M123.788 53.9458L124.534 59.6992L125.054 59.6324L124.118 54.0265L123.788 53.9458Z" fill="#023240"/>
<path d="M109.251 51.7803L108.541 56.9987H114.399L114.848 64.7199H117.256L117.895 53.0581L109.251 51.7803Z" fill="#B53353"/>
<path d="M124.871 53.0581L117.895 51.7803H109.251L117.895 53.0581H124.871Z" fill="#6B1E31"/>
<path d="M110.866 56.4128V46.1359H112.919V56.5844L110.866 56.4128Z" fill="#0B3336"/>
<path d="M100.663 37.7267L95.3993 51.2266L94.1501 51.1987L99.6358 37.8778L100.663 37.7267Z" fill="#1F527A"/>
<path d="M103.059 38.8781L102.97 41.6068L99.1855 51.3117L97.9506 51.2838L103.059 38.8781Z" fill="#2C74AD"/>
<path d="M107.938 78.973C109.839 78.973 111.381 75.238 111.381 70.6306C111.381 66.0232 109.839 62.2882 107.938 62.2882C106.036 62.2882 104.494 66.0232 104.494 70.6306C104.494 75.238 106.036 78.973 107.938 78.973Z" fill="#0B3336"/>
<path d="M115.108 70.2761C115.108 74.8833 113.503 78.6185 111.523 78.6185C111.182 78.6185 108.404 79.1715 108.091 78.9643C106.588 77.9695 107.937 74.0876 107.937 70.2743C107.937 66.5306 106.324 63.4766 107.783 62.4203C108.12 62.1768 111.152 61.9319 111.523 61.9319C113.503 61.9337 115.108 65.67 115.108 70.2761Z" fill="#0B3336"/>
<path d="M107.955 76.204C109.024 76.204 109.89 73.8677 109.89 70.9856C109.89 68.1036 109.024 65.7672 107.955 65.7672C106.886 65.7672 106.02 68.1036 106.02 70.9856C106.02 73.8677 106.886 76.204 107.955 76.204Z" fill="#A8908E"/>
<path d="M107.955 72.8435C108.336 72.8435 108.644 72.0117 108.644 70.9856C108.644 69.9595 108.336 69.1277 107.955 69.1277C107.575 69.1277 107.266 69.9595 107.266 70.9856C107.266 72.0117 107.575 72.8435 107.955 72.8435Z" fill="#0B3336"/>
<path d="M121.384 46.2345C121.384 46.2345 122.915 45.6038 122.915 45.477C122.915 45.3501 122.846 44.7671 122.846 44.7671L121.108 45.5004L121.384 46.2345Z" fill="#0B3336"/>
<path d="M111.446 36.1959C111.446 36.1959 110.246 32.9762 109.251 32.4013L110.032 31.1942C110.032 31.1942 112.179 33.8837 112.245 36.1959C111.65 36.7895 111.446 36.1959 111.446 36.1959Z" fill="#0B3336"/>
<path d="M107.511 19.0179C107.137 19.0177 106.765 19.0651 106.402 19.1587C105.898 18.0995 105.019 17.2653 103.934 16.8181C102.85 16.3709 101.638 16.3426 100.534 16.7387C100.669 16.4213 100.7 16.0691 100.622 15.733C100.544 15.3969 100.361 15.0942 100.1 14.8685C99.8394 14.6429 99.5135 14.506 99.1696 14.4775C98.8258 14.449 98.4818 14.5305 98.1872 14.7101C97.8926 14.8897 97.6627 15.1583 97.5306 15.477C97.3985 15.7957 97.371 16.1482 97.4521 16.4835C97.5332 16.8189 97.7188 17.1198 97.9819 17.343C98.2451 17.5661 98.5723 17.6999 98.9164 17.7251C98.393 18.2112 97.9865 18.8097 97.7277 19.4755C97.4689 20.1413 97.3643 20.8571 97.422 21.5692C97.4796 22.2812 97.6979 22.9709 98.0604 23.5864C98.423 24.202 98.9204 24.7273 99.5152 25.1229C98.9228 25.6286 98.4734 26.2809 98.212 27.0145C97.9505 27.7482 97.886 28.5376 98.025 29.304C98.1639 30.0704 98.5015 30.7869 99.004 31.382C99.5064 31.9772 100.156 32.4301 100.888 32.6956C101.621 32.9611 102.41 33.0299 103.177 32.8951C103.944 32.7603 104.662 32.4267 105.26 31.9275C105.858 31.4283 106.315 30.781 106.584 30.0502C106.854 29.3194 106.927 28.5308 106.796 27.7629C107.396 27.8619 108.011 27.8354 108.6 27.685C109.19 27.5347 109.742 27.2637 110.221 26.8893C110.701 26.5149 111.098 26.0451 111.387 25.5097C111.676 24.9742 111.85 24.3847 111.9 23.7783C111.95 23.1719 111.873 22.5618 111.675 21.9865C111.477 21.4112 111.162 20.8832 110.749 20.4358C110.337 19.9884 109.836 19.6314 109.279 19.3872C108.722 19.1431 108.12 19.0171 107.511 19.0172V19.0179Z" fill="#D2EBFD"/>
<path d="M93.7625 18.889C94.4717 18.7739 94.9533 18.1056 94.8382 17.3964C94.7231 16.6872 94.0549 16.2056 93.3456 16.3207C92.6364 16.4359 92.1548 17.1041 92.27 17.8133C92.3851 18.5225 93.0533 19.0041 93.7625 18.889Z" fill="#D2EBFD"/>
<path d="M101.345 12.5957C102.292 12.5957 103.059 11.8281 103.059 10.8812C103.059 9.93425 102.292 9.16663 101.345 9.16663C100.398 9.16663 99.6303 9.93425 99.6303 10.8812C99.6303 11.8281 100.398 12.5957 101.345 12.5957Z" fill="#D2EBFD"/>
<path d="M109.887 31.4178C109.887 31.4178 109.002 27.7757 109.677 26.0238C104.459 27.2184 104.66 28.0346 104.66 28.0346L104.814 30.6262C104.814 30.6262 108.971 30.9613 109.47 32.0643C110.068 31.8333 109.887 31.4178 109.887 31.4178Z" fill="#D2EBFD"/>
<path d="M120.937 67.0359H118.321V72.3837H120.937V67.0359Z" fill="#061D1F"/>
<path d="M125.096 67.0359H122.48V72.3837H125.096V67.0359Z" fill="#061D1F"/>
<path d="M118.996 60.442V63.0512L121.445 62.8913L121.345 60.4438L118.996 60.442Z" fill="#FDE81D"/>
<path d="M122.788 60.3357L122.942 63.1282L125.299 62.9962L124.93 60.3357H122.788Z" fill="#FDE81D"/>
<path d="M111.14 56.4359C111.14 56.4359 110.953 58.0734 111.768 58.8889C112.584 59.7044 114.103 59.3931 114.103 59.3931L113.913 57.9436C113.913 57.9436 112.34 57.797 112.34 56.536C111.938 56.5318 111.537 56.4984 111.14 56.4359Z" fill="white"/>
<path d="M103.287 62.2281H106.021V63.297L103.287 63.4389V62.2281Z" fill="white"/>
<path d="M103.456 60.3357H106.189V61.4045L103.456 61.5464V60.3357Z" fill="white"/>
<path d="M109.262 33.5728H107.274C106.914 33.5728 106.623 33.8641 106.623 34.2236V35.1703C106.623 35.5298 106.914 35.8212 107.274 35.8212H109.262C109.621 35.8212 109.913 35.5298 109.913 35.1703V34.2236C109.913 33.8641 109.621 33.5728 109.262 33.5728Z" fill="#0B3336"/>
<path d="M93.9972 43.4415H92.0091C91.6497 43.4415 91.3583 43.7329 91.3583 44.0924V45.0391C91.3583 45.3985 91.6497 45.6899 92.0091 45.6899H93.9972C94.3566 45.6899 94.648 45.3985 94.648 45.0391V44.0924C94.648 43.7329 94.3566 43.4415 93.9972 43.4415Z" fill="#0B3336"/>
<path d="M116.6 33.5728H114.612C114.252 33.5728 113.961 33.8641 113.961 34.2236V35.1703C113.961 35.5298 114.252 35.8212 114.612 35.8212H116.6C116.959 35.8212 117.25 35.5298 117.25 35.1703V34.2236C117.25 33.8641 116.959 33.5728 116.6 33.5728Z" fill="#0B3336"/>
<path d="M131.256 26.5694C131.065 26.8628 130.871 27.1616 130.674 27.4634C129.606 26.7698 128.359 26.4007 127.086 26.4007C125.812 26.4007 124.566 26.7698 123.497 27.4634L122.916 26.5694C124.157 25.7632 125.606 25.3341 127.086 25.3341C128.566 25.3341 130.014 25.7632 131.256 26.5694Z" fill="white"/>
<path d="M130.093 28.358L129.513 29.2531C128.79 28.7842 127.947 28.5347 127.086 28.5347C126.224 28.5347 125.381 28.7842 124.658 29.2531C124.468 28.9597 124.273 28.6602 124.078 28.3588C124.973 27.7775 126.018 27.4681 127.086 27.4681C128.153 27.4681 129.198 27.7775 130.093 28.3588V28.358Z" fill="white"/>
<path d="M128.934 30.148L128.354 31.0434C127.976 30.7985 127.536 30.6681 127.086 30.6681C126.636 30.6681 126.195 30.7985 125.818 31.0434C125.637 30.7633 125.442 30.463 125.238 30.1477C125.788 29.7908 126.43 29.601 127.086 29.601C127.742 29.601 128.383 29.7908 128.934 30.1477V30.148Z" fill="white"/>
<path d="M128.355 33.0047C128.355 33.2249 128.298 33.4413 128.189 33.6327C128.081 33.8241 127.924 33.9839 127.735 34.0964C127.545 34.2089 127.33 34.2702 127.11 34.2744C126.89 34.2786 126.672 34.2254 126.479 34.1201C126.286 34.0149 126.123 33.8611 126.007 33.674C125.891 33.4868 125.826 33.2727 125.817 33.0527C125.809 32.8327 125.858 32.6143 125.96 32.4191C126.062 32.2238 126.212 32.0583 126.397 31.9388C126.589 31.8151 126.81 31.7453 127.038 31.7367C127.266 31.7282 127.492 31.7813 127.693 31.8903C127.893 31.9994 128.061 32.1605 128.177 32.3566C128.294 32.5527 128.355 32.7766 128.355 33.0047Z" fill="white"/>
<path d="M39.7445 83.141L39.1633 84.0349C38.095 83.3414 36.8486 82.9723 35.5749 82.9723C34.3013 82.9723 33.0549 83.3414 31.9866 84.0349L31.405 83.141C32.6462 82.3345 34.0946 81.9053 35.5748 81.9053C37.0549 81.9053 38.5033 82.3345 39.7445 83.141Z" fill="white"/>
<path d="M38.5829 84.9295L38.0024 85.8246C37.2796 85.3555 36.4364 85.1059 35.5747 85.1059C34.7131 85.1059 33.8698 85.3555 33.147 85.8246C32.9575 85.5312 32.7624 85.2313 32.5673 84.9299C33.4628 84.3487 34.5075 84.0394 35.5751 84.0394C36.6427 84.0394 37.6874 84.3487 38.5829 84.9299V84.9295Z" fill="white"/>
<path d="M37.4227 86.7196C37.2189 87.0342 37.0242 87.3352 36.8427 87.6146C36.4651 87.3698 36.0247 87.2395 35.5747 87.2395C35.1247 87.2395 34.6844 87.3698 34.3068 87.6146C34.126 87.3345 33.9313 87.0342 33.7271 86.7188C34.2773 86.362 34.9191 86.1721 35.5749 86.1721C36.2307 86.1721 36.8725 86.362 37.4227 86.7188V86.7196Z" fill="white"/>
<path d="M36.8445 89.5767C36.8449 89.8595 36.751 90.1344 36.5777 90.3579C36.4043 90.5814 36.1615 90.7408 35.8875 90.8108C35.6134 90.8809 35.3239 90.8576 35.0646 90.7446C34.8053 90.6317 34.591 90.4356 34.4557 90.1872C34.3203 89.9389 34.2716 89.6525 34.3172 89.3734C34.3628 89.0943 34.5001 88.8383 34.7075 88.6459C34.9148 88.4536 35.1804 88.3359 35.4621 88.3113C35.7439 88.2868 36.0258 88.3568 36.2633 88.5104C36.4415 88.6255 36.5881 88.7833 36.6896 88.9696C36.7911 89.1559 36.8444 89.3646 36.8445 89.5767Z" fill="white"/>
<path d="M186.764 65.9894L186.775 66.1841C186.675 66.1841 186.576 66.1782 186.477 66.1665C186.383 66.1522 186.374 66.1298 186.48 66.0931C186.498 66.0869 186.52 66.0807 186.546 66.0737C186.621 66.0535 186.695 66.0252 186.764 65.9894Z" fill="#7FC7FD"/>
<path d="M155.788 43.9446C149.787 39.7756 141.281 39.9479 135.947 44.9878C141.85 41.1121 149.65 41.1059 155.967 44.0645L155.788 43.9446Z" fill="#6FC0FD"/>
<path d="M81.2419 45.5115C80.0847 42.5895 76.9633 40.4067 73.7 41.0429V41.0451V41.0433C74.1741 38.1283 73.1599 34.5734 70.9309 32.7566C72.9567 35.2008 73.3073 39.1131 72.5167 42.2624L72.52 42.2654C76.3132 41.1503 79.252 42.5536 81.3145 45.6963C81.3127 45.6977 81.29 45.6328 81.2419 45.5115Z" fill="#D2EBFD"/>
<path d="M73.6987 41.0431V41.0428L73.6982 41.0431H73.6987Z" fill="#D2EBFD"/>
<path d="M192.613 108.939C192.613 108.939 165.483 94.1904 175.422 72.8904C195.586 84.5342 202.118 98.7341 202.118 98.7341C202.118 98.7341 196.225 98.8764 192.613 108.939Z" fill="#69A31A"/>
<path d="M194.061 97.6716C193.494 97.7185 193.855 66.3949 210.463 62.8643C211.804 85.7784 199.063 97.2558 194.061 97.6716Z" fill="#85B51D"/>
<path d="M208.688 65.34C202.342 73.59 198.414 85.0623 195.693 94.9022C198.91 86.9044 202.635 77.0653 206.533 69.2355C207.247 67.8246 208.059 66.3792 208.899 65.0808L208.688 65.34Z" fill="#C4DD5D"/>
<path d="M193.472 105.993C186.585 98.2935 180.201 86.5601 176.31 76.4768C179.366 87.706 185.547 99.2611 194.415 107.042C194.415 107.041 194.08 106.663 193.472 105.993Z" fill="#C4DD5D"/>
<path d="M191.255 107.609C191.255 107.609 192.533 89.5752 213.691 87.5875C219.371 105.621 191.255 107.609 191.255 107.609Z" fill="#588A16"/>
<path d="M212.489 89.7912C208.385 96.4887 200.001 101.812 193.243 104.592C200.99 102.743 209.477 97.2191 212.626 89.5767L212.489 89.7912Z" fill="#C4DD5D"/>
<path d="M190.787 112.86C175.172 109.696 159.433 100.357 153.636 84.857C153.532 84.5534 153.438 84.2476 153.347 83.9403C153.227 83.475 152.507 83.6723 152.626 84.139C152.843 84.92 153.134 85.679 153.442 86.4281C156.453 93.5734 161.737 99.5258 167.972 104.023C168.852 104.101 169.763 104.41 169.85 105.303C171.608 106.441 173.433 107.474 175.315 108.395C175.619 108.318 175.895 108.4 176.15 108.586C177.24 109.539 178.738 109.873 180.044 110.466C181.818 111.154 183.619 111.762 185.449 112.29C186.241 112.009 187.153 112.068 187.533 112.86C188.546 113.122 189.564 113.362 190.588 113.579C191.057 113.678 191.257 112.959 190.787 112.86Z" fill="#69A31A"/>
<path d="M169.176 102.4C169.565 103.554 170.633 104.815 171.82 104.619C173.531 104.289 174.052 101.979 173.92 100.397C173.873 97.8963 171.414 94.7132 169.429 97.7665C168.67 99.0817 168.646 100.975 169.176 102.4Z" fill="#69A31A"/>
<path d="M176.722 106.847C177.205 108.479 178.877 109.303 180.219 108.03C181.686 106.628 182.126 104.15 181.233 102.329C180.169 100.298 177.999 101.137 177.126 102.863C176.489 104.008 176.296 105.603 176.722 106.847Z" fill="#69A31A"/>
<path d="M163.307 96.192C163.388 97.4603 164.565 99.3861 165.893 98.105C167.08 96.8546 168.176 93.4116 167.928 91.7015C167.511 89.6954 165.16 90.9858 164.43 92.1078C163.591 93.1781 163.118 94.8438 163.307 96.192Z" fill="#69A31A"/>
<path d="M158.612 90.2671C159.623 93.595 164.16 90.0325 162.785 86.6467C162.032 85.2999 160.156 86.2114 159.424 87.1842C158.73 88.029 158.357 89.2467 158.612 90.2671Z" fill="#69A31A"/>
<path d="M155.65 85.4752C157.043 85.7032 158.344 84.3018 158.587 83.0306C158.654 82.5789 158.517 82.159 158.505 81.7033C158.638 79.7233 156.768 79.7178 155.577 80.7734C154.191 81.8463 153.617 84.92 155.65 85.4752Z" fill="#69A31A"/>
<path d="M150.274 82.9401C151.861 85.07 153.897 83.0889 153.832 81.1122C153.771 80.7555 153.55 80.5831 153.329 80.2689C152.73 79.3566 151.735 78.3553 150.631 79.2386C149.589 80.0452 149.511 81.9262 150.274 82.9401Z" fill="#69A31A"/>
<path d="M148.618 88.4443C149.031 89.9 150.821 90.6443 152.211 90.2315C153.227 89.9634 154.069 88.958 153.573 87.9779C153.139 87.2178 152.378 86.6319 151.618 86.2854C150.319 86.3133 148.173 86.6242 148.618 88.4443Z" fill="#69A31A"/>
<path d="M156.302 95.0851C157.608 93.6489 156.75 92.0275 154.971 91.9318C154.062 91.8687 153.428 91.9791 152.899 92.7557C152.556 93.1443 152.157 93.4589 151.922 93.9418C151.366 95.0418 152.573 96.0234 153.611 96.0839C154.543 96.2133 155.713 95.7693 156.302 95.0851Z" fill="#69A31A"/>
<path d="M160.83 97.7401C159.823 97.2807 158.581 97.3922 157.562 97.797C156.169 98.3506 154.607 100.169 156.462 101.227C157.632 101.92 159.379 101.735 160.493 101.016C161.82 100.247 162.427 98.4867 160.83 97.7401Z" fill="#69A31A"/>
<path d="M168.052 104.03C166.964 103.932 165.759 104.126 164.715 104.444C163.028 104.903 161.3 106.255 163.351 107.683C167.472 110.089 172.682 104.647 168.052 104.03Z" fill="#69A31A"/>
<path d="M176.15 108.585C175.71 108.268 175.452 108.356 174.992 108.489C174.621 108.444 174.247 108.308 173.876 108.409C173.078 108.661 172.42 109.421 172.166 110.219C171.577 112.56 174.535 113.087 176.002 111.797C176.692 111.245 177.241 110.313 177.023 109.414C176.738 109.13 176.48 108.822 176.15 108.585Z" fill="#69A31A"/>
<path d="M186.995 112.295C185.382 111.609 183.26 113.458 182.515 114.8C180.506 117.97 184.56 118.271 186.334 116.476C187.417 115.542 188.467 113.243 186.995 112.295Z" fill="#69A31A"/>
<path d="M185.274 111.023C189.026 113.186 190.162 106.532 186.667 104.94C184.92 103.69 183.651 105.327 183.533 107.07C183.365 108.501 184.183 110.357 185.274 111.023Z" fill="#69A31A"/>
<path d="M183.559 121.378C164.773 124.055 143.483 119.406 130.909 104.332C130.784 104.553 130.606 104.738 130.392 104.874C135.541 110.986 142.306 115.65 149.739 118.546C150.405 118.809 151.075 119.057 151.75 119.293C152.057 119.27 152.365 119.29 152.666 119.354C153.091 119.446 153.512 119.637 153.794 119.965C162.975 122.739 172.733 123.446 182.25 122.32C182.749 122.258 183.265 122.207 183.757 122.1C184.23 122.012 184.03 121.293 183.559 121.378Z" fill="#69A31A"/>
<path d="M175.697 122.797C174.476 122.84 173.382 123.874 173.203 125.073C172.98 126.529 174.482 127.346 175.763 126.997C177.133 126.706 178.606 125.15 177.975 123.721C177.555 123.04 176.399 122.808 175.697 122.797Z" fill="#69A31A"/>
<path d="M178.16 120.081C178.201 118.701 178.764 118.654 177.53 117.587C176.403 116.547 174.684 116.769 174.35 118.41C173.967 119.977 175.45 122.093 177.187 121.718C177.386 121.664 177.558 121.587 177.7 121.457C177.987 121.057 178.257 120.589 178.16 120.081Z" fill="#69A31A"/>
<path d="M163.55 119.116C165.697 123.287 169.149 120.72 167.044 116.993C166.613 116.212 165.919 115.695 165.105 115.403C163.036 114.681 162.873 117.856 163.55 119.116Z" fill="#69A31A"/>
<path d="M165.346 122.269C162.697 122.128 160.105 125.554 160.959 128.063C162 130.124 164.268 127.767 165.1 126.641C165.961 125.537 167.609 122.708 165.346 122.269Z" fill="#69A31A"/>
<path d="M153.233 112.438C152.438 113.569 152.515 115.906 153.384 116.982C154.19 118.164 155.614 118.032 156.265 116.792C156.966 115.66 156.895 113.52 156.12 112.437C155.389 111.243 153.961 111.205 153.233 112.438Z" fill="#69A31A"/>
<path d="M153.659 119.827C151.66 118.35 148.652 120.079 147.996 122.238C147.726 123.065 147.771 124.164 148.588 124.567C149.46 124.947 150.425 124.397 151.184 123.954C152.227 123.301 155.104 121.097 153.659 119.827Z" fill="#69A31A"/>
<path d="M143.464 113.869L144.236 114.653C144.418 114.427 144.523 114.148 144.537 113.857C144.55 113.567 144.47 113.28 144.31 113.038L145.082 113.822C146.828 112.533 146.765 108.005 144.337 107.603C141.751 107.812 141.57 112.603 143.464 113.869Z" fill="#69A31A"/>
<path d="M141.34 114.987C140.153 113.585 137.68 113.946 136.5 115.19C134.956 116.846 136.464 118.351 138.358 118.28C139.92 118.338 142.492 116.738 141.34 114.987Z" fill="#69A31A"/>
<path d="M135.967 109.446C137.446 110.556 139.087 108.735 139.074 107.228C139.248 105.321 137.24 103.352 135.678 105.167C134.707 106.352 134.728 108.454 135.967 109.446Z" fill="#69A31A"/>
<path d="M134.34 109.183C133.264 108.17 131.438 107.932 130.065 108.35C128.813 108.656 127.41 110.002 128.465 111.195C129.678 112.389 131.995 112.446 133.482 111.941C134.849 111.518 135.544 110.303 134.34 109.183Z" fill="#69A31A"/>
<path d="M130.909 104.332C131.716 102.797 130.879 100.739 129.376 99.9746C127.097 98.8479 126.24 101.608 127.195 103.313C127.783 104.683 129.918 105.934 130.909 104.332Z" fill="#69A31A"/>
<path d="M185.416 119.448C185.416 119.448 178.067 118.543 179.132 131.43C189.356 139.524 188.983 115.561 188.983 115.561L185.416 119.448Z" fill="#588A16"/>
<path d="M185.529 121.262C185.507 120.637 185.435 120.011 185.291 119.466C184.958 123.308 183.348 127.414 180.996 130.435C183.862 128.559 185.726 124.72 185.529 121.262Z" fill="#C4DD5D"/>
<path d="M188.913 114.851C188.913 114.851 194.095 128.838 210.425 130.613C210.283 118.756 202.26 105.053 191.184 107.254C188.415 111.017 188.913 114.851 188.913 114.851Z" fill="#69A31A"/>
<path d="M209.777 129.477C207.24 120.021 199.361 111.98 189.48 111.23C198.927 113.185 206.263 120.921 209.857 129.761L209.777 129.477Z" fill="#C4DD5D"/>
<path d="M14.857 86.3804C14.857 86.3804 19.5965 87.6582 21.0342 89.2037C23.2174 89.4167 23.8576 90.4815 24.1227 91.3868C24.3878 92.2921 25.7727 91.9192 26.6787 92.2921C27.5847 92.665 27.9565 94.0492 28.0097 94.2622C28.0629 94.4753 33.9204 97.0302 34.6134 98.308C35.3064 99.5859 36.2634 99.32 37.1694 99.7993C38.0754 100.279 44.3583 106.349 45.3167 106.242C46.2752 106.136 51.7066 109.278 52.0795 110.183C52.4524 111.088 60.7057 116.094 62.9424 117.052C65.1791 118.01 66.2424 119.022 66.6699 120.087C67.0975 121.152 70.6637 122.483 71.3556 122.911C72.0475 123.338 82.8575 129.301 82.8575 129.301L86.3189 131.217C86.3189 131.217 80.399 131.368 79.3122 131.266C75.9345 128.98 14.857 86.3804 14.857 86.3804Z" fill="#CEED35"/>
<path d="M32.2876 83.8955C32.2876 83.8955 63.9533 97.0834 64.8586 97.5095C65.7639 97.9355 85.1466 106.029 87.6495 106.988C90.1524 107.946 90.8443 108.266 90.8443 108.266C90.8443 108.266 93.4003 109.329 96.7549 110.503C100.11 111.676 117.895 120.513 120.451 121.099C123.007 121.686 150.289 133.903 150.904 133.95C151.519 133.998 152.206 133.903 152.206 133.903C152.206 133.903 154.809 133.477 154.431 133.312C154.052 133.146 151.827 133.312 150.62 132.317C149.413 131.323 147.567 130.401 146.834 130.329C146.1 130.258 145.082 130.519 144.278 129.832C143.473 129.146 137.343 127.347 136.798 126.921C136.252 126.495 135.354 125.596 134.502 125.359C133.65 125.122 127.591 122.614 125.698 121.951C123.804 121.289 123.71 121.336 123 121.076C122.29 120.816 115.237 118.614 114.764 117.952C114.29 117.289 112.989 116.769 112.752 116.769C112.516 116.769 111.616 117.147 111.261 116.413C110.906 115.68 110.835 115.183 110.362 115.112C109.889 115.041 110.433 115.609 108.871 115.064C107.309 114.52 101.842 111.893 100.919 111.398C99.9955 110.902 84.6659 105.073 84.6659 105.073C84.6659 105.073 34.382 84.073 32.2876 83.8955Z" fill="#CEED35"/>
<path opacity="0.4" d="M111.139 86.387H49.0728C44.9393 86.387 41.5884 89.7378 41.5884 93.8714V130.016C41.5884 134.149 44.9393 137.5 49.0728 137.5H111.139C115.272 137.5 118.623 134.149 118.623 130.016V93.8714C118.623 89.7378 115.272 86.387 111.139 86.387Z" fill="#A0D5FD"/>
<path opacity="0.8" d="M115.987 130.016V93.8717C115.987 91.1938 113.816 89.0229 111.139 89.0229H49.0728C46.3949 89.0229 44.224 91.1938 44.224 93.8717V130.016C44.224 132.693 46.3949 134.864 49.0728 134.864H111.139C113.816 134.864 115.987 132.693 115.987 130.016Z" fill="white"/>
<path d="M67.3614 93.64C67.2253 93.64 67.0947 93.6941 66.9984 93.7904C66.9022 93.8866 66.8481 94.0172 66.8481 94.1534C66.8481 94.2895 66.9022 94.4201 66.9984 94.5163C67.0947 94.6126 67.2253 94.6667 67.3614 94.6667H72.3734V93.6367L67.3614 93.64Z" fill="#93C74B"/>
<path opacity="0.4" d="M76.6975 93.64H72.3734V94.67H76.6975C76.8337 94.67 76.9642 94.6159 77.0605 94.5196C77.1568 94.4234 77.2108 94.2928 77.2108 94.1566C77.2113 94.089 77.1983 94.0219 77.1727 93.9592C77.1471 93.8965 77.1094 93.8396 77.0617 93.7915C77.014 93.7435 76.9572 93.7054 76.8947 93.6794C76.8322 93.6534 76.7652 93.64 76.6975 93.64Z" fill="#A0D5FD"/>
<path d="M67.3614 96.0428C67.2253 96.0428 67.0947 96.0969 66.9984 96.1932C66.9022 96.2895 66.8481 96.42 66.8481 96.5562C66.8478 96.6237 66.8609 96.6907 66.8866 96.7532C66.9123 96.8157 66.9501 96.8725 66.9978 96.9203C67.0455 96.9682 67.1022 97.0062 67.1646 97.0321C67.227 97.058 67.2939 97.0713 67.3614 97.0713H74.5613V96.0414L67.3614 96.0428Z" fill="#93C74B"/>
<path opacity="0.4" d="M76.6975 96.0428H74.5613V97.0728H76.6975C76.765 97.0728 76.8319 97.0595 76.8943 97.0336C76.9567 97.0077 77.0134 96.9697 77.0611 96.9218C77.1088 96.8739 77.1466 96.8171 77.1723 96.7547C77.198 96.6922 77.2111 96.6252 77.2108 96.5576C77.211 96.4901 77.1979 96.4232 77.1722 96.3608C77.1464 96.2983 77.1087 96.2415 77.061 96.1937C77.0133 96.1459 76.9566 96.1079 76.8943 96.0821C76.8319 96.0562 76.765 96.0428 76.6975 96.0428Z" fill="#A0D5FD"/>
<path opacity="0.4" d="M76.6975 98.4452H71.4908V99.4766H76.6975C76.8337 99.4766 76.9642 99.4225 77.0605 99.3263C77.1568 99.23 77.2108 99.0994 77.2108 98.9633C77.2115 98.8955 77.1987 98.8282 77.1731 98.7654C77.1476 98.7025 77.1099 98.6454 77.0622 98.5972C77.0145 98.549 76.9577 98.5108 76.8951 98.4847C76.8325 98.4586 76.7653 98.4452 76.6975 98.4452Z" fill="#A0D5FD"/>
<path d="M67.3614 98.4452C67.2939 98.4452 67.227 98.4585 67.1646 98.4844C67.1022 98.5104 67.0455 98.5483 66.9978 98.5962C66.9501 98.6441 66.9123 98.7009 66.8866 98.7634C66.8609 98.8258 66.8478 98.8928 66.8481 98.9604C66.8481 99.0965 66.9022 99.2271 66.9984 99.3233C67.0947 99.4196 67.2253 99.4737 67.3614 99.4737H71.4894V98.4437L67.3614 98.4452Z" fill="#93C74B"/>
<path d="M49.4105 126.584C49.3507 126.584 49.2914 126.596 49.2361 126.619C49.1807 126.641 49.1305 126.675 49.0882 126.717C49.0458 126.76 49.0123 126.81 48.9894 126.865C48.9665 126.921 48.9547 126.98 48.9548 127.04C48.9547 127.1 48.9665 127.159 48.9894 127.214C49.0123 127.27 49.0458 127.32 49.0882 127.362C49.1305 127.404 49.1807 127.438 49.2361 127.461C49.2914 127.484 49.3507 127.496 49.4105 127.496H55.8122V126.584H49.4105Z" fill="#93C74B"/>
<path opacity="0.4" d="M57.6767 126.584H55.8133V127.496H57.6767C57.7365 127.496 57.7958 127.484 57.8511 127.461C57.9064 127.438 57.9566 127.404 57.999 127.362C58.0413 127.32 58.0749 127.269 58.0978 127.214C58.1207 127.159 58.1325 127.1 58.1325 127.04C58.1325 126.98 58.1207 126.921 58.0978 126.865C58.0749 126.81 58.0413 126.76 57.999 126.717C57.9566 126.675 57.9064 126.642 57.8511 126.619C57.7958 126.596 57.7365 126.584 57.6767 126.584Z" fill="#A0D5FD"/>
<path d="M49.4105 128.711C49.3507 128.711 49.2914 128.723 49.2361 128.746C49.1807 128.768 49.1305 128.802 49.0882 128.844C49.0458 128.887 49.0123 128.937 48.9894 128.992C48.9665 129.048 48.9547 129.107 48.9548 129.167C48.9547 129.227 48.9665 129.286 48.9894 129.341C49.0123 129.396 49.0458 129.447 49.0882 129.489C49.1305 129.531 49.1807 129.565 49.2361 129.588C49.2914 129.611 49.3507 129.623 49.4105 129.622H54.4155V128.711H49.4105Z" fill="#93C74B"/>
<path opacity="0.4" d="M57.6767 128.711H54.4166V129.622H57.6767C57.7975 129.622 57.9135 129.574 57.9989 129.489C58.0844 129.404 58.1324 129.288 58.1324 129.167C58.1324 129.107 58.1206 129.048 58.0977 128.992C58.0748 128.937 58.0413 128.887 57.9989 128.844C57.9566 128.802 57.9064 128.769 57.8511 128.746C57.7958 128.723 57.7365 128.711 57.6767 128.711Z" fill="#A0D5FD"/>
<path opacity="0.4" d="M57.6767 130.838H56.3339V131.75H57.6767C57.7975 131.75 57.9135 131.702 57.9989 131.616C58.0844 131.531 58.1324 131.415 58.1324 131.294C58.1324 131.234 58.1206 131.175 58.0977 131.119C58.0748 131.064 58.0413 131.014 57.9989 130.972C57.9566 130.929 57.9064 130.896 57.8511 130.873C57.7958 130.85 57.7365 130.838 57.6767 130.838Z" fill="#A0D5FD"/>
<path d="M49.4105 130.838C49.3507 130.838 49.2914 130.85 49.2361 130.873C49.1807 130.895 49.1305 130.929 49.0882 130.971C49.0458 131.014 49.0123 131.064 48.9894 131.119C48.9665 131.175 48.9547 131.234 48.9548 131.294C48.9547 131.354 48.9665 131.413 48.9894 131.468C49.0123 131.524 49.0458 131.574 49.0882 131.616C49.1305 131.658 49.1807 131.692 49.2361 131.715C49.2914 131.738 49.3507 131.75 49.4105 131.75H56.3328V130.838H49.4105Z" fill="#93C74B"/>
<path d="M66.7334 126.584C66.6735 126.584 66.6142 126.596 66.5589 126.619C66.5036 126.641 66.4533 126.675 66.411 126.717C66.3686 126.76 66.3351 126.81 66.3122 126.865C66.2893 126.921 66.2775 126.98 66.2776 127.04C66.2775 127.1 66.2893 127.159 66.3122 127.214C66.3351 127.27 66.3686 127.32 66.411 127.362C66.4533 127.404 66.5036 127.438 66.5589 127.461C66.6142 127.484 66.6735 127.496 66.7334 127.496H73.8577V126.584H66.7334Z" fill="#93C74B"/>
<path opacity="0.4" d="M74.9995 126.584H73.8577V127.496H74.9995C75.1203 127.496 75.2363 127.447 75.3217 127.362C75.4072 127.277 75.4552 127.161 75.4552 127.04C75.4552 126.919 75.4072 126.803 75.3217 126.717C75.2363 126.632 75.1203 126.584 74.9995 126.584Z" fill="#A0D5FD"/>
<path d="M66.7334 128.711C66.6735 128.711 66.6142 128.723 66.5589 128.746C66.5036 128.768 66.4533 128.802 66.411 128.844C66.3686 128.887 66.3351 128.937 66.3122 128.992C66.2893 129.048 66.2775 129.107 66.2776 129.167C66.2775 129.227 66.2893 129.286 66.3122 129.341C66.3351 129.396 66.3686 129.447 66.411 129.489C66.4533 129.531 66.5036 129.565 66.5589 129.588C66.6142 129.611 66.6735 129.623 66.7334 129.622H73.1071V128.711H66.7334Z" fill="#93C74B"/>
<path opacity="0.4" d="M74.9995 128.711H73.1082V129.622H74.9995C75.1204 129.622 75.2363 129.574 75.3218 129.489C75.4072 129.404 75.4553 129.288 75.4553 129.167C75.4553 129.107 75.4435 129.048 75.4206 128.992C75.3977 128.937 75.3641 128.887 75.3218 128.844C75.2794 128.802 75.2292 128.769 75.1739 128.746C75.1186 128.723 75.0593 128.711 74.9995 128.711Z" fill="#A0D5FD"/>
<path opacity="0.4" d="M74.9995 130.838H69.8819V131.75H74.9995C75.1203 131.75 75.2363 131.702 75.3217 131.616C75.4072 131.531 75.4552 131.415 75.4552 131.294C75.4552 131.234 75.4434 131.175 75.4205 131.119C75.3976 131.064 75.3641 131.014 75.3217 130.972C75.2794 130.929 75.2292 130.896 75.1739 130.873C75.1186 130.85 75.0593 130.838 74.9995 130.838Z" fill="#A0D5FD"/>
<path d="M66.7334 130.838C66.6735 130.838 66.6142 130.85 66.5589 130.873C66.5036 130.895 66.4533 130.929 66.411 130.971C66.3686 131.014 66.3351 131.064 66.3122 131.119C66.2893 131.175 66.2775 131.234 66.2776 131.294C66.2775 131.354 66.2893 131.413 66.3122 131.468C66.3351 131.524 66.3686 131.574 66.411 131.616C66.4533 131.658 66.5036 131.692 66.5589 131.715C66.6142 131.738 66.6735 131.75 66.7334 131.75H69.8808V130.838H66.7334Z" fill="#93C74B"/>
<path d="M84.0583 126.584C83.9984 126.584 83.9392 126.596 83.8838 126.619C83.8285 126.641 83.7783 126.675 83.7359 126.717C83.6936 126.76 83.66 126.81 83.6371 126.865C83.6142 126.921 83.6025 126.98 83.6025 127.04C83.6025 127.1 83.6142 127.159 83.6371 127.214C83.66 127.27 83.6936 127.32 83.7359 127.362C83.7783 127.404 83.8285 127.438 83.8838 127.461C83.9392 127.484 83.9984 127.496 84.0583 127.496H90.6033V126.584H84.0583Z" fill="#93C74B"/>
<path opacity="0.4" d="M92.323 126.584H90.6033V127.496H92.3245C92.3843 127.496 92.4436 127.484 92.499 127.461C92.5543 127.438 92.6046 127.404 92.647 127.362C92.6893 127.32 92.7229 127.27 92.7459 127.214C92.7688 127.159 92.7806 127.1 92.7806 127.04C92.7806 126.98 92.7687 126.92 92.7457 126.865C92.7227 126.809 92.689 126.759 92.6465 126.717C92.6039 126.674 92.5535 126.641 92.498 126.618C92.4425 126.595 92.383 126.584 92.323 126.584Z" fill="#A0D5FD"/>
<path d="M84.0583 128.711C83.9984 128.711 83.9392 128.723 83.8838 128.746C83.8285 128.768 83.7783 128.802 83.7359 128.844C83.6936 128.887 83.66 128.937 83.6371 128.992C83.6142 129.048 83.6025 129.107 83.6025 129.167C83.6025 129.227 83.6142 129.286 83.6371 129.341C83.66 129.396 83.6936 129.447 83.7359 129.489C83.7783 129.531 83.8285 129.565 83.8838 129.588C83.9392 129.611 83.9984 129.623 84.0583 129.622H86.7401V128.711H84.0583Z" fill="#93C74B"/>
<path opacity="0.4" d="M92.323 128.711H86.7401V129.622H92.323C92.3829 129.623 92.4422 129.611 92.4975 129.588C92.5529 129.565 92.6031 129.531 92.6455 129.489C92.6879 129.447 92.7215 129.397 92.7444 129.341C92.7673 129.286 92.7791 129.227 92.7791 129.167C92.7791 129.107 92.7673 129.048 92.7444 128.992C92.7215 128.937 92.6879 128.887 92.6455 128.844C92.6031 128.802 92.5529 128.768 92.4975 128.746C92.4422 128.723 92.3829 128.711 92.323 128.711Z" fill="#A0D5FD"/>
<path opacity="0.4" d="M92.323 130.838H90.1047V131.75H92.323C92.3829 131.75 92.4422 131.738 92.4975 131.715C92.5529 131.692 92.6032 131.659 92.6455 131.616C92.6879 131.574 92.7215 131.524 92.7444 131.468C92.7673 131.413 92.7791 131.354 92.7791 131.294C92.7791 131.234 92.7673 131.175 92.7444 131.119C92.7215 131.064 92.6879 131.014 92.6455 130.971C92.6032 130.929 92.5529 130.895 92.4975 130.873C92.4422 130.85 92.3829 130.838 92.323 130.838Z" fill="#A0D5FD"/>
<path d="M84.0583 130.838C83.9984 130.838 83.9392 130.85 83.8838 130.873C83.8285 130.895 83.7783 130.929 83.7359 130.971C83.6936 131.014 83.66 131.064 83.6371 131.119C83.6142 131.175 83.6025 131.234 83.6025 131.294C83.6025 131.354 83.6142 131.413 83.6371 131.468C83.66 131.524 83.6936 131.574 83.7359 131.616C83.7783 131.658 83.8285 131.692 83.8838 131.715C83.9392 131.738 83.9984 131.75 84.0583 131.75H90.1046V130.838H84.0583Z" fill="#93C74B"/>
<path d="M101.383 126.584C101.323 126.584 101.264 126.596 101.209 126.619C101.153 126.641 101.103 126.675 101.061 126.717C101.018 126.76 100.985 126.81 100.962 126.865C100.939 126.921 100.927 126.98 100.927 127.04C100.927 127.1 100.939 127.159 100.962 127.214C100.985 127.27 101.018 127.32 101.061 127.362C101.103 127.404 101.153 127.438 101.209 127.461C101.264 127.484 101.323 127.496 101.383 127.496H103.696V126.584H101.383Z" fill="#93C74B"/>
<path opacity="0.4" d="M109.647 126.584H103.695V127.496H109.647C109.707 127.496 109.766 127.484 109.821 127.461C109.877 127.438 109.927 127.404 109.969 127.362C110.012 127.32 110.045 127.27 110.068 127.214C110.091 127.159 110.103 127.1 110.103 127.04C110.103 126.98 110.091 126.921 110.068 126.865C110.045 126.81 110.012 126.76 109.969 126.717C109.927 126.675 109.877 126.641 109.821 126.619C109.766 126.596 109.707 126.584 109.647 126.584Z" fill="#A0D5FD"/>
<path d="M101.383 128.711C101.323 128.711 101.264 128.723 101.209 128.746C101.153 128.768 101.103 128.802 101.061 128.844C101.018 128.887 100.985 128.937 100.962 128.992C100.939 129.048 100.927 129.107 100.927 129.167C100.927 129.227 100.939 129.286 100.962 129.341C100.985 129.397 101.018 129.447 101.061 129.489C101.103 129.531 101.153 129.565 101.209 129.588C101.264 129.611 101.323 129.623 101.383 129.622H104.974V128.711H101.383Z" fill="#93C74B"/>
<path opacity="0.4" d="M109.647 128.711H104.973V129.622H109.647C109.707 129.623 109.766 129.611 109.821 129.588C109.877 129.565 109.927 129.531 109.969 129.489C110.012 129.447 110.045 129.397 110.068 129.341C110.091 129.286 110.103 129.227 110.103 129.167C110.103 129.107 110.091 129.048 110.068 128.992C110.045 128.937 110.012 128.887 109.969 128.844C109.927 128.802 109.877 128.768 109.821 128.746C109.766 128.723 109.707 128.711 109.647 128.711Z" fill="#A0D5FD"/>
<path opacity="0.4" d="M109.647 130.838H107.617V131.75H109.645C109.705 131.75 109.765 131.738 109.82 131.715C109.875 131.692 109.926 131.659 109.968 131.616C110.01 131.574 110.044 131.524 110.067 131.468C110.09 131.413 110.102 131.354 110.102 131.294C110.102 131.173 110.054 131.057 109.968 130.972C109.883 130.886 109.768 130.838 109.647 130.838Z" fill="#A0D5FD"/>
<path d="M101.383 130.838C101.323 130.838 101.264 130.85 101.209 130.873C101.153 130.895 101.103 130.929 101.061 130.971C101.018 131.014 100.985 131.064 100.962 131.119C100.939 131.175 100.927 131.234 100.927 131.294C100.927 131.354 100.939 131.413 100.962 131.468C100.985 131.524 101.018 131.574 101.061 131.616C101.103 131.659 101.153 131.692 101.209 131.715C101.264 131.738 101.323 131.75 101.383 131.75H107.617V130.838H101.383Z" fill="#93C74B"/>
<path d="M110.297 96.3542C107.679 95.6729 104.729 96.4609 102.799 98.3565C101.36 99.77 100.353 101.81 98.4353 102.434C95.9863 103.23 93.2752 101.283 90.8182 102.054C88.8312 102.677 87.7877 104.808 86.1905 106.143C84.5441 107.519 82.203 108.016 80.1405 107.426C78.8469 107.057 77.686 106.299 76.3814 105.969C73.8921 105.341 71.2187 106.391 69.2805 108.075C68.1391 109.065 67.2048 110.254 66.3622 111.514H110.297V96.3542Z" fill="#93C74B"/>
<path d="M62.7733 97.2331C62.7732 98.181 62.447 99.1 61.8496 99.8359C61.2522 100.572 60.4198 101.08 59.4922 101.275C58.5645 101.47 57.5981 101.34 56.7549 100.907C55.9117 100.474 55.2432 99.7637 54.8614 98.8961C54.4797 98.0285 54.4079 97.0559 54.6582 96.1417C54.9085 95.2274 55.4656 94.427 56.2361 93.8748C57.0066 93.3226 57.9435 93.0522 58.8897 93.109C59.8359 93.1657 60.7338 93.5461 61.4328 94.1864C61.8562 94.5728 62.1942 95.0434 62.425 95.5681C62.6559 96.0927 62.7745 96.6599 62.7733 97.2331Z" fill="#FDE81D"/>
<path d="M62.7733 97.233C62.7745 98.0437 62.5361 98.8366 62.088 99.5122L58.788 97.1898L61.4328 94.1864C61.8558 94.5731 62.1935 95.0438 62.4243 95.5684C62.6551 96.093 62.774 96.6599 62.7733 97.233Z" fill="#19767B"/>
<path d="M62.7733 107.489C62.7727 108.525 62.3824 109.523 61.6799 110.285C60.9774 111.047 60.0141 111.517 58.9813 111.601C57.9485 111.686 56.9217 111.378 56.1048 110.741C55.288 110.103 54.7408 109.182 54.5719 108.159C54.4031 107.137 54.6249 106.088 55.1934 105.222C55.7618 104.355 56.6353 103.735 57.6405 103.482C58.6456 103.23 59.7088 103.365 60.6189 103.861C61.529 104.356 62.2196 105.176 62.5533 106.157C62.6992 106.586 62.7735 107.036 62.7733 107.489Z" fill="#FDE81D"/>
<path d="M62.5533 106.157L58.641 107.489L60.2635 103.688C60.7967 103.916 61.2761 104.254 61.6706 104.679C62.065 105.105 62.3658 105.608 62.5533 106.157Z" fill="#19767B"/>
<path d="M69.7844 103.74H68.5594C68.1918 103.74 67.8939 104.038 67.8939 104.405V104.406C67.8939 104.773 68.1918 105.071 68.5594 105.071H69.7844C70.1519 105.071 70.4499 104.773 70.4499 104.406V104.405C70.4499 104.038 70.1519 103.74 69.7844 103.74Z" fill="#19767B"/>
<path d="M87.4101 101.13H86.185C85.8175 101.13 85.5195 101.428 85.5195 101.796V101.796C85.5195 102.164 85.8175 102.462 86.185 102.462H87.4101C87.7776 102.462 88.0756 102.164 88.0756 101.796V101.796C88.0756 101.428 87.7776 101.13 87.4101 101.13Z" fill="#19767B"/>
<path d="M101.894 96.4978H100.669C100.301 96.4978 100.003 96.7958 100.003 97.1633V97.1637C100.003 97.5312 100.301 97.8292 100.669 97.8292H101.894C102.261 97.8292 102.559 97.5312 102.559 97.1637V97.1633C102.559 96.7958 102.261 96.4978 101.894 96.4978Z" fill="#19767B"/>
<path d="M71.8875 113.005H67.7339V114.017H71.8875V113.005Z" fill="#93C74B"/>
<path d="M89.034 113.005H84.8804V114.017H89.034V113.005Z" fill="#93C74B"/>
<path d="M106.18 113.005H102.027V114.017H106.18V113.005Z" fill="#93C74B"/>
<path d="M101.615 92.7637C101.947 92.7637 102.215 92.495 102.215 92.1635C102.215 91.832 101.947 91.5632 101.615 91.5632C101.284 91.5632 101.015 91.832 101.015 92.1635C101.015 92.495 101.284 92.7637 101.615 92.7637Z" fill="#7FC7FD"/>
<path d="M105.595 92.7637C105.926 92.7637 106.195 92.495 106.195 92.1635C106.195 91.832 105.926 91.5632 105.595 91.5632C105.263 91.5632 104.994 91.832 104.994 92.1635C104.994 92.495 105.263 92.7637 105.595 92.7637Z" fill="#7FC7FD"/>
<path d="M109.574 92.7637C109.905 92.7637 110.174 92.495 110.174 92.1635C110.174 91.832 109.905 91.5632 109.574 91.5632C109.242 91.5632 108.973 91.832 108.973 92.1635C108.973 92.495 109.242 92.7637 109.574 92.7637Z" fill="#7FC7FD"/>
<path d="M88.4712 124.778C90.8771 124.778 92.8275 122.827 92.8275 120.421C92.8275 118.015 90.8771 116.065 88.4712 116.065C86.0652 116.065 84.1148 118.015 84.1148 120.421C84.1148 122.827 86.0652 124.778 88.4712 124.778Z" fill="white" stroke="#93C74B" stroke-width="5.95" stroke-miterlimit="10"/>
<path d="M88.4712 123.987C90.4403 123.987 92.0366 122.391 92.0366 120.421C92.0366 118.452 90.4403 116.856 88.4712 116.856C86.502 116.856 84.9057 118.452 84.9057 120.421C84.9057 122.391 86.502 123.987 88.4712 123.987Z" fill="#DAEEFD"/>
<path d="M89.8333 121.225C89.8363 121.405 89.8033 121.585 89.7362 121.753C89.6691 121.92 89.5693 122.073 89.4426 122.202C89.3159 122.331 89.1649 122.433 88.9982 122.503C88.8316 122.573 88.6528 122.609 88.4721 122.609C88.2914 122.609 88.1126 122.573 87.9459 122.503C87.7793 122.433 87.6282 122.331 87.5015 122.202C87.3748 122.073 87.2751 121.92 87.208 121.753C87.1409 121.585 87.1079 121.405 87.1108 121.225C87.1108 120.473 88.4719 118.473 88.4719 118.473C88.4719 118.473 89.8333 120.473 89.8333 121.225Z" fill="#75BEE9"/>
<path d="M53.566 124.778C55.9719 124.778 57.9223 122.827 57.9223 120.421C57.9223 118.015 55.9719 116.065 53.566 116.065C51.16 116.065 49.2096 118.015 49.2096 120.421C49.2096 122.827 51.16 124.778 53.566 124.778Z" fill="#DAEEFD" stroke="#93C74B" stroke-width="5.95" stroke-miterlimit="10"/>
<path d="M53.566 123.987C55.5351 123.987 57.1314 122.391 57.1314 120.421C57.1314 118.452 55.5351 116.856 53.566 116.856C51.5968 116.856 50.0005 118.452 50.0005 120.421C50.0005 122.391 51.5968 123.987 53.566 123.987Z" fill="white"/>
<path d="M54.4522 120.101C54.4265 120.112 54.402 120.123 54.3789 120.136C54.3811 120.114 54.3825 120.092 54.3833 120.07C54.4056 119.367 53.6628 118.509 53.6628 118.509C53.6628 118.509 52.884 119.319 52.8616 120.022C52.8599 120.083 52.8637 120.144 52.873 120.205C52.813 120.164 52.7488 120.129 52.6816 120.101C52.0318 119.833 51.2149 120.321 51.2149 120.321C51.2149 120.321 51.4514 121.241 52.1011 121.509C52.7076 121.759 53.46 121.352 53.5572 121.297C53.5733 121.311 53.5825 121.318 53.5825 121.318L53.5971 121.308C53.7493 121.391 54.4573 121.748 55.0341 121.509C55.6838 121.241 55.9203 120.321 55.9203 120.321C55.9203 120.321 55.1019 119.833 54.4522 120.101Z" fill="#75BEE9"/>
<path d="M105.924 124.778C108.33 124.778 110.28 122.827 110.28 120.421C110.28 118.015 108.33 116.065 105.924 116.065C103.518 116.065 101.568 118.015 101.568 120.421C101.568 122.827 103.518 124.778 105.924 124.778Z" fill="white" stroke="#93C74B" stroke-width="5.95" stroke-miterlimit="10"/>
<path d="M105.924 123.987C107.893 123.987 109.49 122.391 109.49 120.421C109.49 118.452 107.893 116.856 105.924 116.856C103.955 116.856 102.359 118.452 102.359 120.421C102.359 122.391 103.955 123.987 105.924 123.987Z" fill="#DAEEFD"/>
<path d="M105.675 121.183V118.521C105.675 118.455 105.662 118.389 105.637 118.328C105.612 118.268 105.575 118.212 105.528 118.166C105.482 118.119 105.426 118.082 105.366 118.057C105.305 118.032 105.239 118.019 105.174 118.019C105.04 118.019 104.913 118.071 104.819 118.166C104.724 118.26 104.672 118.387 104.672 118.521V121.183C104.543 121.27 104.44 121.388 104.371 121.527C104.302 121.665 104.27 121.819 104.279 121.973C104.287 122.128 104.335 122.277 104.418 122.408C104.501 122.538 104.617 122.645 104.753 122.717C104.89 122.79 105.043 122.826 105.197 122.821C105.352 122.817 105.503 122.773 105.635 122.694C105.768 122.614 105.877 122.501 105.953 122.367C106.03 122.232 106.07 122.08 106.07 121.926C106.07 121.618 105.913 121.299 105.675 121.183Z" fill="white"/>
<path d="M107.4 119.306H106.424C106.33 119.306 106.253 119.382 106.253 119.477V119.551C106.253 119.646 106.33 119.722 106.424 119.722H107.4C107.494 119.722 107.571 119.646 107.571 119.551V119.477C107.571 119.382 107.494 119.306 107.4 119.306Z" fill="#6DBFFD"/>
<path d="M107.4 120.213H106.424C106.33 120.213 106.253 120.29 106.253 120.384V120.459C106.253 120.553 106.33 120.63 106.424 120.63H107.4C107.494 120.63 107.571 120.553 107.571 120.459V120.384C107.571 120.29 107.494 120.213 107.4 120.213Z" fill="#6DBFFD"/>
<path d="M105.38 121.455V120.355H104.964V121.455C104.849 121.503 104.755 121.589 104.697 121.699C104.639 121.808 104.62 121.935 104.645 122.057C104.669 122.179 104.735 122.288 104.831 122.367C104.927 122.446 105.048 122.489 105.172 122.489C105.296 122.489 105.417 122.446 105.513 122.367C105.609 122.288 105.675 122.179 105.699 122.057C105.724 121.935 105.705 121.808 105.647 121.699C105.589 121.589 105.495 121.503 105.38 121.455Z" fill="#52A756"/>
<path d="M105.38 118.882C105.381 118.854 105.377 118.826 105.367 118.8C105.357 118.774 105.342 118.75 105.322 118.729C105.303 118.709 105.279 118.693 105.254 118.682C105.228 118.671 105.2 118.665 105.172 118.665C105.144 118.665 105.116 118.671 105.09 118.682C105.064 118.693 105.041 118.709 105.022 118.729C105.002 118.75 104.987 118.774 104.977 118.8C104.967 118.826 104.963 118.854 104.964 118.882V120.354H105.38V118.882Z" fill="#8AC6E9"/>
<path d="M71.0186 124.778C73.4246 124.778 75.375 122.827 75.375 120.421C75.375 118.015 73.4246 116.065 71.0186 116.065C68.6126 116.065 66.6622 118.015 66.6622 120.421C66.6622 122.827 68.6126 124.778 71.0186 124.778Z" fill="white" stroke="#93C74B" stroke-width="5.95" stroke-miterlimit="10"/>
<path d="M71.0186 123.987C72.9877 123.987 74.5841 122.391 74.5841 120.421C74.5841 118.452 72.9877 116.856 71.0186 116.856C69.0494 116.856 67.4531 118.452 67.4531 120.421C67.4531 122.391 69.0494 123.987 71.0186 123.987Z" fill="#DAEEFD"/>
<path d="M71.0186 121.384C71.5502 121.384 71.9811 120.953 71.9811 120.421C71.9811 119.89 71.5502 119.459 71.0186 119.459C70.487 119.459 70.0561 119.89 70.0561 120.421C70.0561 120.953 70.487 121.384 71.0186 121.384Z" fill="#FE4775"/>
<path d="M72.1131 119.414L72.4618 119.065C72.556 118.972 72.4097 118.825 72.3151 118.919L71.9668 119.268C71.8729 119.362 72.0189 119.508 72.1131 119.414Z" fill="#FE4775"/>
<path d="M71.4634 119.003L71.591 118.526C71.6254 118.397 71.4263 118.343 71.3919 118.471L71.2643 118.948C71.2291 119.076 71.4267 119.13 71.4634 119.003Z" fill="#FE4775"/>
<path d="M70.4943 119.024C70.5287 119.153 70.7282 119.098 70.6934 118.969L70.5658 118.493C70.5317 118.364 70.3322 118.419 70.3667 118.548L70.4943 119.024Z" fill="#FE4775"/>
<path d="M69.8654 119.473C69.9596 119.567 70.1055 119.421 70.012 119.327L69.6633 118.978C69.5691 118.884 69.4228 119.03 69.5167 119.125L69.8654 119.473Z" fill="#FE4775"/>
<path d="M69.069 120.049L69.5457 120.177C69.6744 120.211 69.729 120.012 69.6007 119.977L69.124 119.85C68.9953 119.815 68.9403 120.015 69.069 120.049Z" fill="#FE4775"/>
<path d="M69.5666 120.747L69.0899 120.874C68.9616 120.909 69.0166 121.108 69.1445 121.073L69.6212 120.946C69.7499 120.911 69.6956 120.712 69.5666 120.747Z" fill="#FE4775"/>
<path d="M69.9234 121.429L69.5747 121.777C69.4804 121.871 69.6267 122.018 69.7213 121.924L70.0697 121.575C70.1646 121.48 70.0187 121.334 69.9234 121.429Z" fill="#FE4775"/>
<path d="M70.5749 121.84L70.4473 122.317C70.4128 122.445 70.6119 122.5 70.6464 122.372L70.774 121.895C70.8085 121.766 70.609 121.711 70.5749 121.84Z" fill="#FE4775"/>
<path d="M71.5433 121.818C71.5088 121.69 71.3094 121.745 71.3438 121.873L71.4714 122.35C71.5059 122.478 71.7054 122.423 71.6709 122.295L71.5433 121.818Z" fill="#FE4775"/>
<path d="M72.1721 121.37C72.0779 121.275 71.9316 121.422 72.0255 121.516L72.3742 121.865C72.4684 121.959 72.6143 121.813 72.5208 121.718L72.1721 121.37Z" fill="#FE4775"/>
<path d="M72.9685 120.794L72.4919 120.666C72.3635 120.632 72.3085 120.831 72.4372 120.865L72.9139 120.993C73.0422 121.028 73.0972 120.828 72.9685 120.794Z" fill="#FE4775"/>
<path d="M72.4709 120.096L72.9476 119.969C73.0759 119.934 73.0209 119.735 72.8926 119.769L72.4159 119.897C72.2876 119.931 72.3433 120.131 72.4709 120.096Z" fill="#FE4775"/>
<path d="M52.9837 99.6575H50.002C49.649 99.6575 49.3629 99.9435 49.3629 100.296C49.3629 100.649 49.649 100.935 50.002 100.935H52.9837C53.3367 100.935 53.6228 100.649 53.6228 100.296C53.6228 99.9435 53.3367 99.6575 52.9837 99.6575Z" fill="#19767B"/>
<path d="M52.9837 110.118H50.002C49.649 110.118 49.3629 110.404 49.3629 110.757C49.3629 111.109 49.649 111.396 50.002 111.396H52.9837C53.3367 111.396 53.6228 111.109 53.6228 110.757C53.6228 110.404 53.3367 110.118 52.9837 110.118Z" fill="#19767B"/>
</svg>
