<svg width="190" height="62" viewBox="0 0 190 62" fill="none" xmlns="http://www.w3.org/2000/svg">
<path d="M18.8011 22.5612V27.5241H8.44058V32.8855H16.1929V37.7035H8.44058V47.9916H2.24599V22.5612H18.8011ZM37.8875 43.4997H28.3964L26.8749 47.9916H20.3905L29.5918 22.5612H36.7645L45.9658 47.9916H39.409L37.8875 43.4997ZM36.2936 38.7179L33.142 29.4079L30.0266 38.7179H36.2936ZM61.7351 47.9916L56.4461 38.3918H54.9609V47.9916H48.7663V22.5612H59.163C61.1675 22.5612 62.8701 22.9114 64.2708 23.6118C65.6957 24.3121 66.7583 25.2781 67.4587 26.5098C68.1591 27.7173 68.5093 29.0698 68.5093 30.5671C68.5093 32.2576 68.0262 33.767 67.0602 35.0953C66.1184 36.4236 64.7176 37.3654 62.858 37.9209L68.7266 47.9916H61.7351ZM54.9609 34.0085H58.8008C59.9358 34.0085 60.7811 33.7308 61.3366 33.1753C61.9162 32.6199 62.206 31.835 62.206 30.8207C62.206 29.8547 61.9162 29.0939 61.3366 28.5385C60.7811 27.983 59.9358 27.7053 58.8008 27.7053H54.9609V34.0085ZM101.197 22.5612V47.9916H95.0027V32.7406L89.3152 47.9916H84.3161L78.5924 32.7044V47.9916H72.3978V22.5612H79.7154L86.8519 40.1669L93.9159 22.5612H101.197ZM111.846 22.5612V47.9916H105.652V22.5612H111.846ZM125.537 48.2452C123.677 48.2452 122.011 47.9433 120.538 47.3396C119.065 46.7358 117.881 45.8422 116.988 44.6589C116.118 43.4755 115.659 42.0506 115.611 40.3842H122.204C122.301 41.3261 122.627 42.0506 123.182 42.5578C123.738 43.0408 124.462 43.2823 125.356 43.2823C126.274 43.2823 126.998 43.077 127.529 42.6665C128.061 42.2318 128.326 41.6401 128.326 40.8914C128.326 40.2635 128.109 39.7443 127.674 39.3337C127.264 38.9231 126.744 38.585 126.117 38.3194C125.513 38.0537 124.643 37.7518 123.508 37.4137C121.866 36.9066 120.526 36.3994 119.487 35.8923C118.449 35.3851 117.555 34.6364 116.807 33.6463C116.058 32.6561 115.684 31.3641 115.684 29.7701C115.684 27.4034 116.541 25.5559 118.256 24.2276C119.97 22.8752 122.204 22.199 124.957 22.199C127.759 22.199 130.017 22.8752 131.732 24.2276C133.446 25.5559 134.364 27.4155 134.485 29.8064H127.783C127.735 28.9852 127.433 28.3452 126.877 27.8864C126.322 27.4034 125.609 27.1619 124.74 27.1619C123.991 27.1619 123.388 27.3672 122.929 27.7777C122.47 28.1641 122.24 28.7317 122.24 29.4803C122.24 30.3014 122.627 30.9414 123.4 31.4003C124.172 31.8591 125.38 32.3542 127.022 32.8855C128.664 33.441 129.993 33.9723 131.007 34.4795C132.045 34.9866 132.939 35.7232 133.688 36.6892C134.436 37.6552 134.811 38.899 134.811 40.4205C134.811 41.8695 134.436 43.1857 133.688 44.3691C132.963 45.5524 131.901 46.4943 130.5 47.1947C129.099 47.895 127.445 48.2452 125.537 48.2452ZM160.648 22.5612V47.9916H154.454V37.5224H144.817V47.9916H138.623V22.5612H144.817V32.5233H154.454V22.5612H160.648ZM180.951 43.4997H171.459L169.938 47.9916H163.454L172.655 22.5612H179.828L189.029 47.9916H182.472L180.951 43.4997ZM179.357 38.7179L176.205 29.4079L173.09 38.7179H179.357Z" fill="#06B612"/>
<path d="M121.68 15.8258C119.443 17.7852 116.225 18.7751 112.114 18.7751C111.958 18.7751 111.802 18.7751 111.646 18.77C110.815 19.6936 110.028 20.6886 109.378 21.7194C109.265 21.8979 109.047 22 108.822 22C108.728 22 108.628 21.9796 108.541 21.9439C108.228 21.8163 108.11 21.505 108.266 21.255C108.616 20.6937 109.003 20.1477 109.415 19.6222C109.465 18.7343 109.297 17.8311 108.984 16.9331C104.024 16.382 100.3 14.7236 97.9319 12.009C93.671 7.13603 95.2891 0.676095 95.3579 0.405656C95.4266 0.145421 95.7265 -0.0229656 96.0514 0.00254759C102.23 0.655685 106.56 2.55897 108.928 5.67157C112.339 10.1517 110.496 15.5605 110.134 16.5045V16.5096C110.346 17.0709 110.502 17.6475 110.59 18.2189C110.621 18.1781 110.659 18.1424 110.696 18.1016C110.634 17.1984 110.596 13.5602 113.67 10.7181C116.026 8.53415 119.618 7.38096 124.348 7.28911C124.679 7.28401 124.96 7.49321 124.985 7.76365C124.997 7.96266 125.36 12.601 121.68 15.8258Z" fill="#06B612"/>
</svg>
