<svg width="30" height="22" viewBox="0 0 30 22" fill="none" xmlns="http://www.w3.org/2000/svg">
<path d="M26.6798 15.8258C24.4431 17.7852 21.2254 18.7751 17.1144 18.7751C16.9582 18.7751 16.802 18.7751 16.6458 18.77C15.8149 19.6936 15.0276 20.6886 14.3779 21.7194C14.2654 21.8979 14.0467 22 13.8218 22C13.7281 22 13.6281 21.9796 13.5407 21.9439C13.2283 21.8163 13.1096 21.505 13.2658 21.255C13.6156 20.6937 14.003 20.1477 14.4154 19.6222C14.4653 18.7343 14.2967 17.8311 13.9843 16.9331C9.02353 16.382 5.29985 14.7236 2.93194 12.009C-1.32905 7.13603 0.289129 0.676095 0.357855 0.405656C0.42658 0.145421 0.726474 -0.0229656 1.05136 0.00254759C7.23042 0.655685 11.5601 2.55897 13.928 5.67157C17.3393 10.1517 15.4962 15.5605 15.1339 16.5045V16.5096C15.3463 17.0709 15.5025 17.6475 15.5899 18.2189C15.6212 18.1781 15.6587 18.1424 15.6962 18.1016C15.6337 17.1984 15.5962 13.5602 18.6701 10.7181C21.0255 8.53415 24.618 7.38096 29.3476 7.28911C29.6787 7.28401 29.9598 7.49321 29.9848 7.76365C29.9973 7.96266 30.3597 12.601 26.6798 15.8258Z" fill="#06B612"/>
</svg>
